<?xml version="1.0" encoding="utf-8"?>
<!-- Generator: Adobe Illustrator 16.0.0, SVG Export Plug-In . SVG Version: 6.00 Build 0)  -->
<!DOCTYPE svg PUBLIC "-//W3C//DTD SVG 1.1//EN" "http://www.w3.org/Graphics/SVG/1.1/DTD/svg11.dtd">
<svg version="1.1" id="Layer_1" xmlns="http://www.w3.org/2000/svg" xmlns:xlink="http://www.w3.org/1999/xlink" x="0px" y="0px"
	 width="24px" height="24px" viewBox="0 0 24 24" enable-background="new 0 0 24 24" xml:space="preserve">
<g>
	<g>
		<path fill-rule="evenodd" clip-rule="evenodd" fill="none" d="M11.961,21.89c-3.472,0-6.944-0.001-10.416,0.003
			c-0.123,0-0.141-0.033-0.141-0.146C1.407,15.425,1.407,9.102,1.403,2.779c0-0.122,0.034-0.14,0.146-0.14
			c6.944,0.003,13.889,0.003,20.833,0c0.122,0,0.141,0.034,0.141,0.146c-0.004,6.323-0.004,12.646,0,18.968
			c0,0.122-0.033,0.141-0.146,0.141C18.905,21.889,15.434,21.89,11.961,21.89z M6.952,2.694C6.509,2.687,6.076,2.755,5.648,2.858
			c-0.77,0.185-1.457,0.539-2.058,1.045C2.983,4.416,2.508,5.041,2.153,5.755C1.805,6.458,1.608,7.208,1.511,7.979
			C1.439,8.543,1.442,9.113,1.495,9.683c0.06,0.651,0.182,1.291,0.367,1.913c0.206,0.694,0.467,1.37,0.843,1.995
			c0.285,0.475,0.586,0.938,0.925,1.376c0.298,0.386,0.608,0.758,0.932,1.122s0.663,0.712,1.003,1.06
			c0.314,0.321,0.658,0.614,0.99,0.918c0.55,0.503,1.122,0.978,1.706,1.439c0.427,0.337,0.863,0.66,1.3,0.983
			c0.561,0.416,1.142,0.802,1.721,1.19c0.277,0.187,0.532,0.168,0.813,0.017c0.542-0.294,1.069-0.61,1.585-0.945
			c0.663-0.431,1.31-0.887,1.938-1.368c0.525-0.403,1.032-0.831,1.519-1.278c0.576-0.529,1.119-1.094,1.632-1.686
			c0.115-0.133,0.229-0.268,0.333-0.408c0.252-0.342,0.519-0.672,0.763-1.02c0.22-0.314,0.213-0.656-0.058-0.926
			c-0.199-0.198-0.549-0.228-0.788-0.079c-0.189,0.118-0.287,0.308-0.408,0.479c-0.285,0.401-0.596,0.781-0.917,1.154
			c-0.535,0.621-1.121,1.194-1.725,1.746c-0.507,0.463-1.047,0.89-1.604,1.295c-0.732,0.534-1.476,1.049-2.267,1.491
			c-0.212,0.119-0.437,0.126-0.655,0.013c-0.253-0.132-0.479-0.304-0.707-0.473c-0.391-0.289-0.789-0.568-1.173-0.864
			c-0.413-0.319-0.819-0.648-1.222-0.982C7.683,17.3,7.04,16.74,6.435,16.14c-0.735-0.729-1.428-1.495-2.023-2.348
			c-0.402-0.575-0.752-1.174-1.01-1.827c-0.226-0.574-0.387-1.168-0.486-1.775c-0.099-0.597-0.13-1.199-0.082-1.808
			C2.885,7.708,3.039,7.065,3.31,6.451c0.306-0.696,0.758-1.28,1.386-1.717C5.08,4.465,5.504,4.279,5.959,4.16
			C6.584,3.996,7.21,4,7.831,4.16c0.516,0.132,0.981,0.378,1.414,0.689c0.551,0.397,1.006,0.888,1.418,1.424
			c0.181,0.235,0.318,0.498,0.494,0.734c0.347,0.465,0.899,0.365,1.142-0.086c0.224-0.417,0.458-0.823,0.755-1.19
			c0.408-0.505,0.881-0.941,1.465-1.227c0.654-0.321,1.339-0.47,2.086-0.382c0.721,0.084,1.379,0.318,2.01,0.642
			c0.479,0.246,0.879,0.599,1.206,1.029c0.409,0.536,0.669,1.143,0.792,1.801c0.137,0.727,0.142,1.459,0.023,2.192
			c-0.039,0.239-0.083,0.477-0.127,0.715c-0.025,0.13-0.032,0.268,0.021,0.398c0.106,0.254,0.388,0.445,0.645,0.438
			c0.257-0.007,0.525-0.228,0.617-0.498c0.096-0.28,0.13-0.573,0.181-0.862c0.08-0.459,0.121-0.925,0.1-1.388
			c-0.017-0.359-0.034-0.721-0.104-1.078c-0.064-0.331-0.153-0.654-0.262-0.97c-0.121-0.352-0.28-0.689-0.47-1.011
			c-0.327-0.555-0.744-1.031-1.245-1.435c-0.48-0.387-1.017-0.673-1.59-0.896c-0.699-0.273-1.419-0.454-2.172-0.459
			c-0.615-0.003-1.211,0.112-1.787,0.333c-0.638,0.244-1.197,0.612-1.7,1.064c-0.339,0.305-0.65,0.638-0.911,1.016
			c-0.119,0.172-0.208,0.172-0.348,0.019c-0.08-0.087-0.144-0.191-0.225-0.277c-0.494-0.526-1.024-1.003-1.644-1.387
			C8.795,3,7.913,2.725,6.952,2.694z M21.716,13.25c0.138-0.021,0.278-0.03,0.414-0.062c0.281-0.065,0.426-0.374,0.3-0.632
			c-0.111-0.23-0.316-0.302-0.551-0.302c-0.954-0.003-1.907-0.004-2.86,0.001c-0.148,0.001-0.245-0.048-0.314-0.177
			c-0.105-0.196-0.204-0.396-0.285-0.603c-0.147-0.371-0.307-0.736-0.522-1.073c-0.152-0.237-0.485-0.349-0.76-0.284
			c-0.232,0.056-0.373,0.211-0.505,0.387c-0.223,0.295-0.375,0.631-0.543,0.958c-0.028,0.055-0.055,0.123-0.132,0.109
			c-0.067-0.011-0.053-0.079-0.064-0.127c-0.065-0.266-0.082-0.541-0.132-0.809c-0.109-0.584-0.157-1.177-0.263-1.761
			c-0.053-0.295-0.063-0.595-0.121-0.89c-0.068-0.35-0.09-0.71-0.233-1.041c-0.088-0.205-0.238-0.345-0.481-0.36
			c-0.265-0.017-0.452,0.088-0.563,0.325c-0.043,0.093-0.089,0.188-0.104,0.292c-0.08,0.583-0.18,1.165-0.232,1.75
			c-0.031,0.35-0.078,0.697-0.111,1.046c-0.042,0.432-0.074,0.865-0.129,1.296c-0.051,0.399-0.079,0.8-0.118,1.201
			c-0.014,0.144-0.039,0.287-0.059,0.43c-0.007,0.044-0.022,0.083-0.073,0.086c-0.049,0.003-0.076-0.034-0.088-0.075
			c-0.014-0.049-0.021-0.102-0.022-0.153c-0.006-0.125-0.026-0.247-0.061-0.367c-0.081-0.279-0.299-0.451-0.616-0.488
			c-0.232-0.027-0.522,0.135-0.641,0.361c-0.046,0.087-0.083,0.178-0.131,0.264c-0.02,0.036-0.056,0.063-0.104,0.052
			c-0.043-0.009-0.054-0.043-0.062-0.081c-0.042-0.207-0.077-0.417-0.129-0.622c-0.094-0.38-0.159-0.769-0.315-1.132
			c-0.114-0.266-0.315-0.425-0.605-0.442c-0.228-0.014-0.536,0.243-0.643,0.476c-0.182,0.397-0.281,0.822-0.443,1.226
			c-0.068,0.169-0.167,0.227-0.34,0.225c-0.419-0.004-0.84-0.007-1.259,0.008c-0.466,0.017-0.933,0.022-1.397,0
			c-0.166-0.008-0.307,0.024-0.444,0.1C5.76,12.48,5.696,12.756,5.813,12.97c0.121,0.22,0.33,0.268,0.542,0.27
			c0.839,0.01,1.679,0.007,2.518,0.001c0.159-0.002,0.319-0.016,0.479-0.02c0.235-0.007,0.482-0.015,0.659-0.217
			c0.095-0.109,0.207-0.204,0.265-0.342c0.022-0.053,0.054-0.103,0.125-0.097c0.078,0.006,0.076,0.068,0.092,0.123
			c0.113,0.402,0.199,0.812,0.325,1.211c0.176,0.556,0.91,0.686,1.257,0.306c0.031-0.034,0.065-0.069,0.105-0.089
			c0.061-0.029,0.117-0.012,0.132,0.06c0.028,0.131,0.05,0.263,0.069,0.396c0.032,0.214,0.061,0.43,0.092,0.644
			c0.063,0.435,0.125,0.869,0.192,1.303c0.031,0.199,0.062,0.405,0.23,0.544c0.237,0.194,0.504,0.227,0.785,0.108
			c0.251-0.104,0.343-0.327,0.374-0.569c0.065-0.521,0.121-1.045,0.165-1.569c0.048-0.583,0.12-1.162,0.174-1.744
			c0.018-0.19,0.069-0.378,0.067-0.567c-0.004-0.483,0.132-0.953,0.132-1.435c0-0.055,0.02-0.107,0.086-0.11
			c0.075-0.003,0.089,0.052,0.099,0.113c0.077,0.5,0.149,1.001,0.293,1.486c0.089,0.3,0.253,0.561,0.583,0.628
			c0.289,0.059,0.495-0.115,0.682-0.317c0.264-0.287,0.408-0.645,0.591-0.979c0.082-0.15,0.153-0.306,0.237-0.454
			c0.06-0.105,0.138-0.101,0.196,0.003c0.03,0.054,0.055,0.112,0.078,0.169c0.121,0.303,0.25,0.604,0.441,0.87
			c0.215,0.299,0.485,0.518,0.885,0.52C19.747,13.22,20.731,13.191,21.716,13.25z"/>
		<path fill-rule="evenodd" clip-rule="evenodd" d="M6.952,2.694C7.913,2.725,8.795,3,9.615,3.508
			c0.619,0.384,1.149,0.861,1.644,1.387c0.081,0.086,0.145,0.19,0.225,0.277c0.14,0.153,0.229,0.153,0.348-0.019
			c0.261-0.378,0.572-0.711,0.911-1.016c0.503-0.453,1.063-0.82,1.7-1.064c0.576-0.221,1.172-0.336,1.787-0.333
			c0.753,0.005,1.473,0.186,2.172,0.459c0.573,0.224,1.109,0.51,1.59,0.896c0.501,0.404,0.918,0.88,1.245,1.435
			c0.189,0.322,0.349,0.659,0.47,1.011c0.108,0.316,0.197,0.64,0.262,0.97c0.07,0.357,0.088,0.719,0.104,1.078
			c0.021,0.463-0.02,0.929-0.1,1.388c-0.051,0.289-0.085,0.582-0.181,0.862c-0.092,0.27-0.36,0.491-0.617,0.498
			c-0.257,0.008-0.538-0.183-0.645-0.438c-0.054-0.13-0.047-0.268-0.021-0.398c0.044-0.238,0.088-0.476,0.127-0.715
			c0.118-0.733,0.113-1.466-0.023-2.192c-0.123-0.658-0.383-1.265-0.792-1.801c-0.327-0.43-0.728-0.784-1.206-1.029
			c-0.631-0.324-1.289-0.558-2.01-0.642c-0.747-0.087-1.432,0.062-2.086,0.382c-0.584,0.286-1.057,0.722-1.465,1.227
			c-0.297,0.368-0.531,0.774-0.755,1.19c-0.242,0.452-0.795,0.551-1.142,0.086c-0.176-0.236-0.313-0.499-0.494-0.734
			c-0.412-0.537-0.867-1.027-1.418-1.424C8.813,4.538,8.347,4.292,7.831,4.16C7.21,4,6.584,3.996,5.959,4.16
			C5.504,4.279,5.08,4.465,4.695,4.734C4.067,5.171,3.615,5.754,3.31,6.451C3.039,7.065,2.885,7.708,2.833,8.382
			C2.785,8.991,2.816,9.593,2.915,10.19c0.1,0.606,0.261,1.201,0.486,1.775c0.258,0.653,0.607,1.252,1.01,1.827
			c0.596,0.853,1.288,1.618,2.023,2.348C7.04,16.74,7.683,17.3,8.34,17.846c0.402,0.334,0.809,0.663,1.222,0.982
			c0.384,0.296,0.782,0.575,1.173,0.864c0.229,0.169,0.454,0.341,0.707,0.473c0.219,0.113,0.443,0.106,0.655-0.013
			c0.791-0.442,1.534-0.957,2.267-1.491c0.557-0.405,1.097-0.832,1.604-1.295c0.604-0.552,1.189-1.125,1.725-1.746
			c0.321-0.373,0.632-0.753,0.917-1.154c0.121-0.172,0.219-0.361,0.408-0.479c0.239-0.148,0.589-0.119,0.788,0.079
			c0.271,0.27,0.277,0.611,0.058,0.926c-0.244,0.348-0.511,0.678-0.763,1.02c-0.104,0.141-0.218,0.275-0.333,0.408
			c-0.513,0.592-1.056,1.156-1.632,1.686c-0.486,0.447-0.993,0.875-1.519,1.278c-0.628,0.481-1.274,0.938-1.938,1.368
			c-0.516,0.335-1.043,0.651-1.585,0.945c-0.28,0.151-0.535,0.17-0.813-0.017c-0.579-0.389-1.16-0.774-1.721-1.19
			c-0.437-0.323-0.873-0.646-1.3-0.983c-0.584-0.462-1.156-0.937-1.706-1.439c-0.332-0.304-0.676-0.597-0.99-0.918
			c-0.34-0.348-0.68-0.695-1.003-1.06s-0.634-0.736-0.932-1.122c-0.339-0.438-0.64-0.901-0.925-1.376
			c-0.376-0.625-0.637-1.301-0.843-1.995c-0.186-0.623-0.308-1.262-0.367-1.913c-0.053-0.57-0.056-1.14,0.016-1.704
			c0.098-0.771,0.294-1.521,0.643-2.224c0.354-0.714,0.83-1.339,1.438-1.852c0.601-0.507,1.288-0.86,2.058-1.045
			C6.076,2.755,6.509,2.687,6.952,2.694z"/>
		<path fill-rule="evenodd" clip-rule="evenodd" d="M21.716,13.25c-0.984-0.059-1.969-0.03-2.952-0.037
			c-0.399-0.002-0.67-0.221-0.885-0.52c-0.191-0.266-0.32-0.567-0.441-0.87c-0.023-0.058-0.048-0.115-0.078-0.169
			c-0.059-0.104-0.137-0.108-0.196-0.003c-0.084,0.148-0.155,0.304-0.237,0.454c-0.183,0.334-0.327,0.692-0.591,0.979
			c-0.187,0.202-0.393,0.376-0.682,0.317c-0.33-0.067-0.494-0.328-0.583-0.628c-0.144-0.485-0.216-0.987-0.293-1.486
			c-0.01-0.061-0.023-0.116-0.099-0.113c-0.066,0.003-0.086,0.055-0.086,0.11c0,0.482-0.136,0.952-0.132,1.435
			c0.002,0.189-0.05,0.377-0.067,0.567c-0.054,0.582-0.126,1.161-0.174,1.744c-0.044,0.524-0.1,1.048-0.165,1.569
			c-0.031,0.242-0.123,0.465-0.374,0.569c-0.281,0.118-0.548,0.086-0.785-0.108c-0.169-0.139-0.199-0.345-0.23-0.544
			c-0.067-0.434-0.129-0.868-0.192-1.303c-0.031-0.214-0.06-0.43-0.092-0.644c-0.02-0.133-0.041-0.265-0.069-0.396
			c-0.015-0.071-0.071-0.089-0.132-0.06c-0.04,0.02-0.074,0.055-0.105,0.089c-0.347,0.38-1.081,0.25-1.257-0.306
			c-0.126-0.399-0.212-0.809-0.325-1.211c-0.016-0.055-0.014-0.117-0.092-0.123c-0.071-0.005-0.103,0.044-0.125,0.097
			c-0.058,0.138-0.17,0.233-0.265,0.342c-0.177,0.202-0.424,0.21-0.659,0.217c-0.159,0.004-0.319,0.018-0.479,0.02
			c-0.839,0.006-1.679,0.009-2.518-0.001c-0.212-0.002-0.421-0.05-0.542-0.27c-0.117-0.213-0.054-0.489,0.159-0.607
			c0.138-0.076,0.278-0.108,0.444-0.1c0.465,0.022,0.932,0.017,1.397,0c0.419-0.015,0.84-0.013,1.259-0.008
			c0.173,0.002,0.271-0.056,0.34-0.225c0.162-0.403,0.262-0.829,0.443-1.226c0.106-0.232,0.415-0.489,0.643-0.476
			c0.29,0.017,0.491,0.176,0.605,0.442c0.156,0.363,0.222,0.751,0.315,1.132c0.052,0.205,0.087,0.415,0.129,0.622
			c0.008,0.038,0.019,0.071,0.062,0.081c0.048,0.01,0.084-0.016,0.104-0.052c0.048-0.086,0.085-0.177,0.131-0.264
			c0.118-0.226,0.408-0.388,0.641-0.361c0.317,0.037,0.535,0.209,0.616,0.488c0.034,0.12,0.055,0.242,0.061,0.367
			c0.002,0.051,0.009,0.104,0.022,0.153c0.012,0.041,0.039,0.078,0.088,0.075c0.051-0.003,0.066-0.042,0.073-0.086
			c0.02-0.144,0.045-0.287,0.059-0.43c0.039-0.4,0.067-0.801,0.118-1.201c0.055-0.431,0.087-0.864,0.129-1.296
			c0.033-0.349,0.08-0.697,0.111-1.046c0.053-0.585,0.152-1.167,0.232-1.75c0.015-0.104,0.061-0.199,0.104-0.292
			c0.111-0.237,0.299-0.342,0.563-0.325c0.243,0.015,0.394,0.155,0.481,0.36c0.144,0.331,0.165,0.691,0.233,1.041
			c0.058,0.295,0.068,0.595,0.121,0.89c0.105,0.584,0.153,1.177,0.263,1.761c0.05,0.268,0.066,0.542,0.132,0.809
			c0.012,0.048-0.003,0.116,0.064,0.127c0.077,0.014,0.104-0.054,0.132-0.109c0.168-0.327,0.32-0.662,0.543-0.958
			c0.132-0.176,0.272-0.331,0.505-0.387c0.274-0.065,0.607,0.047,0.76,0.284c0.216,0.337,0.375,0.702,0.522,1.073
			c0.081,0.207,0.18,0.406,0.285,0.603c0.069,0.129,0.166,0.178,0.314,0.177c0.953-0.005,1.906-0.004,2.86-0.001
			c0.234,0,0.439,0.072,0.551,0.302c0.126,0.259-0.019,0.567-0.3,0.632C21.994,13.22,21.854,13.229,21.716,13.25z"/>
	</g>
</g>
</svg>
