<?xml version="1.0" encoding="utf-8"?>
<!-- Generator: Adobe Illustrator 16.0.0, SVG Export Plug-In . SVG Version: 6.00 Build 0)  -->
<!DOCTYPE svg PUBLIC "-//W3C//DTD SVG 1.1//EN" "http://www.w3.org/Graphics/SVG/1.1/DTD/svg11.dtd">
<svg version="1.1" id="Layer_1" xmlns="http://www.w3.org/2000/svg" xmlns:xlink="http://www.w3.org/1999/xlink" x="0px" y="0px"
	 width="24px" height="24px" viewBox="0 0 24 24" enable-background="new 0 0 24 24" xml:space="preserve">
<g>
	<g>
		<path fill-rule="evenodd" clip-rule="evenodd" fill="none" d="M10.62,3.397c3.468,0,6.937,0.013,10.405-0.014
			c0.531-0.004,0.653,0.12,0.651,0.651c-0.022,5.875-0.022,11.749,0,17.624c0.002,0.531-0.12,0.653-0.651,0.651
			c-5.875-0.022-11.75-0.022-17.624,0c-0.531,0.002-0.66-0.119-0.652-0.651c0.035-2.193,0.015-4.389,0.015-6.582
			c0.021,0.067,0.035,0.138,0.063,0.202c0.498,1.15-0.332,3.096,1.914,3.201c0.685,1.365,2.062,1.329,3.277,1.601
			c2.029,0.453,4.267,0.135,6.011,1.64c0.074,0.064,0.198,0.07,0.3,0.102c2.176,0.679,4.379,0.068,6.735,0.315
			c-0.483-0.627-0.969-0.523-1.409-0.55c-1.165-0.071-2.332-0.108-3.494-0.2c-1.001-0.079-2.029-0.284-2.741-0.998
			c-0.649-0.65-1.381-0.786-2.193-0.844c-0.635-0.045-1.278-0.011-1.907-0.096c-0.951-0.129-1.954-0.07-2.861-0.607
			c0.333-0.344,0.716-0.255,1.049-0.342c0.258-0.067,0.633-0.06,0.599-0.45c-0.029-0.331-0.364-0.276-0.597-0.294
			C6.591,17.69,5.674,17.64,4.756,17.58c-0.348-0.022-0.755,0.027-0.846-0.446c-0.153-0.797-0.365-1.597-0.385-2.4
			c-0.017-0.631-0.083-1.594,1.129-1.031c0.13,0.061,0.356-0.017,0.512-0.088c1.457-0.667,3.155-0.919,4.139-2.403
			c0.145-0.218,0.345-0.388,0.612-0.156c0.225,0.195,0.055,0.374-0.039,0.562c-0.187,0.374-0.647,0.628-0.566,1.378
			c1.265-1.186,2.432-0.845,3.662-0.222c0.583,0.295,1.441,0.523,1.903-0.027c0.733-0.873,1.126-1.996,1.669-3.057
			c-0.555,0.279-0.887,0.735-1.27,1.143c-1.219,1.302-1.838,1.422-3.324,0.414c-2.316-1.57-4.091-3.673-5.6-6.008
			c-0.02-0.031,0.046-0.117,0.089-0.216c1.1,0.134,2.111,0.56,3.038,1.131c0.756,0.466,1.461,0.388,2.226,0.135
			c0.612-0.202,0.655-0.46,0.147-0.855c-0.436-0.339-0.978-0.565-1.417-1.424c3.673,1.996,7.084,2.077,10.404-0.266
			C17.366,5.046,13.952,5.09,10.62,3.397z"/>
		<path fill-rule="evenodd" clip-rule="evenodd" d="M10.62,3.397c3.332,1.693,6.747,1.649,10.22,0.346
			c-3.32,2.343-6.731,2.261-10.404,0.266c0.439,0.859,0.981,1.085,1.417,1.424c0.508,0.395,0.464,0.653-0.147,0.855
			c-0.764,0.253-1.47,0.331-2.226-0.135C8.553,5.581,7.542,5.155,6.441,5.021c-0.043,0.1-0.109,0.186-0.089,0.216
			c1.509,2.335,3.284,4.438,5.6,6.008c1.486,1.008,2.105,0.888,3.324-0.414c0.382-0.408,0.715-0.864,1.27-1.143
			c-0.543,1.062-0.936,2.185-1.669,3.057c-0.462,0.55-1.32,0.323-1.903,0.027c-1.229-0.623-2.397-0.964-3.662,0.222
			c-0.081-0.75,0.38-1.004,0.566-1.378c0.094-0.188,0.264-0.367,0.039-0.562c-0.267-0.232-0.468-0.062-0.612,0.156
			c-0.984,1.484-2.683,1.737-4.139,2.403c-0.155,0.071-0.381,0.148-0.512,0.088c-1.212-0.563-1.146,0.4-1.129,1.031
			c0.021,0.804,0.232,1.604,0.385,2.4c0.091,0.474,0.499,0.424,0.846,0.446c0.917,0.06,1.835,0.11,2.752,0.176
			c0.232,0.018,0.568-0.037,0.597,0.294c0.034,0.391-0.341,0.383-0.599,0.45c-0.333,0.087-0.715-0.002-1.049,0.342
			c0.907,0.537,1.91,0.479,2.861,0.607c0.628,0.085,1.272,0.051,1.907,0.096c0.812,0.058,1.543,0.193,2.193,0.844
			c0.712,0.714,1.74,0.919,2.741,0.998c1.163,0.092,2.33,0.129,3.494,0.2c0.44,0.026,0.925-0.077,1.409,0.55
			c-2.355-0.247-4.559,0.363-6.735-0.315c-0.102-0.031-0.226-0.037-0.3-0.102c-1.744-1.505-3.982-1.187-6.011-1.64
			c-1.215-0.271-2.592-0.235-3.277-1.601c-2.246-0.105-1.416-2.051-1.914-3.201c-0.028-0.064-0.042-0.135-0.063-0.202
			c0-0.213,0-0.425,0-0.638c0.118-0.404,0.215-0.817,0.359-1.213c0.148-0.409,0.481-0.687,0.904-0.544
			c1.687,0.568,2.72-0.657,3.84-1.453c0.848-0.603,0.745-1.396,0.12-2.245C7.275,8.019,6.621,7.011,5.96,6.011
			C5.678,5.584,5.176,5.146,5.543,4.593c0.397-0.596,1.03-0.321,1.554-0.165C7.839,4.65,8.554,4.963,9.291,5.206
			c0.412,0.136,0.776,0.47,1.305,0.386c-0.261-0.784-1.519-1.133-0.825-2.195C10.054,3.397,10.336,3.397,10.62,3.397z"/>
		<path fill-rule="evenodd" clip-rule="evenodd" fill="none" d="M9.771,3.397c-0.694,1.062,0.564,1.411,0.825,2.195
			c-0.529,0.083-0.894-0.25-1.305-0.386C8.554,4.963,7.839,4.65,7.097,4.429C6.573,4.272,5.94,3.997,5.543,4.593
			C5.176,5.146,5.678,5.584,5.96,6.011c0.661,1,1.315,2.008,2.026,2.973c0.625,0.848,0.728,1.642-0.12,2.245
			c-1.12,0.796-2.154,2.021-3.84,1.453c-0.422-0.143-0.755,0.135-0.904,0.544c-0.144,0.396-0.241,0.809-0.359,1.213
			c0-3.448,0.015-6.896-0.016-10.344c-0.005-0.561,0.077-0.731,0.69-0.717C5.548,3.428,7.66,3.397,9.771,3.397z"/>
	</g>
</g>
</svg>
