<?xml version="1.0" encoding="utf-8"?>
<!-- Generator: Adobe Illustrator 16.0.0, SVG Export Plug-In . SVG Version: 6.00 Build 0)  -->
<!DOCTYPE svg PUBLIC "-//W3C//DTD SVG 1.1//EN" "http://www.w3.org/Graphics/SVG/1.1/DTD/svg11.dtd">
<svg version="1.1" id="Layer_1" xmlns="http://www.w3.org/2000/svg" xmlns:xlink="http://www.w3.org/1999/xlink" x="0px" y="0px"
	 width="24px" height="24px" viewBox="0 0 24 24" enable-background="new 0 0 24 24" xml:space="preserve">
<g>
	<g>
		<path fill-rule="evenodd" clip-rule="evenodd" fill="#FFFFFF" d="M1.607,14.728c0-3.402,0-6.803-0.002-10.205
			c0-0.083,0.017-0.1,0.1-0.1c3.546,0.003,7.091,0.002,10.636,0.002c0.015,0.029,0.008,0.06,0.006,0.09
			c-0.058,0.24-0.133,0.475-0.199,0.712C12.011,5.716,11.87,6.203,11.73,6.69c-0.258,0.903-0.516,1.805-0.775,2.708
			c-0.144,0.497-0.279,0.996-0.425,1.493c-0.047,0.159-0.055,0.167-0.221,0.167c-0.723,0-1.446,0-2.169,0
			c-0.188,0-0.21-0.023-0.21-0.216C7.93,9.282,7.93,7.723,7.93,6.164c0-0.186,0-0.186-0.187-0.186c-0.224,0-0.446-0.001-0.669,0
			c-0.142,0-0.15,0.009-0.15,0.152c-0.001,0.956,0,1.912,0,2.869c0,0.589,0,1.179,0,1.768C6.923,11.001,6.909,11.01,6.68,11.04
			c-0.381,0.05-0.761,0.102-1.141,0.148c-0.433,0.053-0.864,0.102-1.296,0.155c-0.255,0.031-0.509,0.074-0.765,0.092
			c-0.087,0.006-0.116,0.051-0.113,0.135c0.007,0.192,0.03,0.383,0.05,0.573c0.064,0.63,0.104,1.262,0.169,1.892
			c0.02,0.19,0.053,0.381,0.049,0.573c-0.003,0.122-0.025,0.148-0.144,0.149c-0.593,0.002-1.186,0.001-1.778,0
			c-0.024,0-0.048-0.002-0.071-0.01C1.628,14.742,1.617,14.735,1.607,14.728z"/>
		<path fill-rule="evenodd" clip-rule="evenodd" fill="#FFFFFF" d="M22.808,16.558c0,1.658-0.001,3.317,0.002,4.976
			c0,0.07-0.014,0.085-0.084,0.085c-7.012-0.003-14.024-0.003-21.036,0c-0.07,0-0.084-0.015-0.084-0.085
			c0.003-1.11,0.002-2.221,0.002-3.331c0.009-0.007,0.019-0.012,0.03-0.014c0.394,0.015,0.788,0.003,1.182,0.007
			c0.034,0,0.068,0.001,0.103,0.001c0.079-0.002,0.11,0.039,0.111,0.114c0.002,0.14,0.005,0.28,0.017,0.42
			c0.051,0.621,0.279,1.169,0.667,1.651c0.434,0.542,0.986,0.904,1.656,1.083c0.296,0.079,0.597,0.099,0.904,0.089
			c0.374-0.011,0.724-0.095,1.067-0.229c0.317-0.124,0.595-0.309,0.852-0.529c0.573-0.493,0.925-1.117,1.043-1.86
			c0.092-0.581,0.027-1.155-0.203-1.703c-0.046-0.107-0.112-0.204-0.165-0.308c-0.061-0.121-0.037-0.166,0.097-0.167
			c0.274-0.003,0.549-0.001,0.822-0.001c0.761,0,1.521,0,2.282,0c0.183,0,0.187,0.004,0.21,0.185c0.128,0.99,0.5,1.876,1.135,2.647
			c0.528,0.642,1.163,1.146,1.926,1.487c0.464,0.207,0.944,0.349,1.445,0.42c0.616,0.087,1.228,0.062,1.836-0.076
			c0.459-0.104,0.893-0.267,1.308-0.483c0.378-0.197,0.723-0.442,1.045-0.723c0.356-0.311,0.66-0.667,0.921-1.059
			c0.344-0.516,0.584-1.076,0.724-1.68c0.061-0.268,0.11-0.536,0.119-0.811c0.002-0.038,0.009-0.075,0.037-0.104
			C22.787,16.551,22.797,16.551,22.808,16.558z"/>
		<path fill-rule="evenodd" clip-rule="evenodd" fill="#FFFFFF" d="M19.147,4.425c1.192,0,2.386,0.001,3.578-0.002
			c0.07,0,0.084,0.014,0.084,0.084c-0.002,3.845-0.002,7.69-0.002,11.535c-0.012,0.007-0.022,0.006-0.032-0.004
			c-0.033-0.035-0.036-0.08-0.037-0.125c-0.013-0.4-0.096-0.788-0.21-1.169c-0.125-0.415-0.305-0.808-0.531-1.177
			c-0.483-0.791-1.138-1.407-1.94-1.866c-0.24-0.137-0.493-0.253-0.754-0.349c-0.161-0.059-0.164-0.066-0.164-0.239
			c0-2.12,0-4.239,0-6.359c0-0.099,0-0.198-0.006-0.298C19.135,4.446,19.14,4.435,19.147,4.425z"/>
		<path fill-rule="evenodd" clip-rule="evenodd" fill="#FAFAFA" d="M19.147,4.425c-0.001,0.009-0.002,0.018-0.002,0.027
			c-0.063,0.042-0.133,0.026-0.2,0.026c-2.092,0.001-4.184,0.001-6.274,0c-0.116,0-0.232,0.006-0.349,0.013
			c0.007-0.022,0.013-0.044,0.019-0.066C14.61,4.425,16.879,4.425,19.147,4.425z"/>
		<path fill-rule="evenodd" clip-rule="evenodd" fill="#F0EFEF" d="M1.632,18.201c-0.008,0-0.017,0.001-0.024,0.001
			c0-1.158,0-2.316,0-3.475c0.009,0.001,0.018,0.001,0.025,0.002c0.033,0.041,0.028,0.091,0.028,0.138c0,1.065,0,2.131,0,3.196
			C1.661,18.111,1.666,18.16,1.632,18.201z"/>
		<path fill-rule="evenodd" clip-rule="evenodd" fill="#F3F3F3" d="M22.785,16.043c0.008,0,0.015,0,0.022,0c0,0.172,0,0.343,0,0.515
			c-0.008,0-0.016,0-0.023,0c-0.058-0.108-0.021-0.226-0.028-0.339C22.752,16.16,22.742,16.097,22.785,16.043z"/>
		<path fill-rule="evenodd" clip-rule="evenodd" fill="#020202" d="M22.785,16.043c0,0.172,0,0.343-0.001,0.515
			c-0.033,0.25-0.05,0.501-0.101,0.749c-0.092,0.441-0.231,0.865-0.43,1.271c-0.263,0.54-0.608,1.021-1.033,1.443
			c-0.495,0.492-1.067,0.87-1.71,1.144c-0.377,0.159-0.768,0.272-1.169,0.339c-0.459,0.076-0.922,0.084-1.388,0.036
			c-0.497-0.052-0.975-0.173-1.436-0.359c-0.509-0.206-0.977-0.485-1.397-0.841c-0.428-0.359-0.797-0.772-1.095-1.244
			c-0.328-0.521-0.562-1.082-0.688-1.687c-0.039-0.187-0.07-0.375-0.092-0.564c-0.005-0.048-0.023-0.065-0.069-0.065
			c-0.068,0-0.137-0.001-0.205-0.001c-1.008,0-2.015,0-3.022,0c-0.031,0-0.074-0.018-0.092,0.022
			c-0.014,0.033,0.009,0.064,0.026,0.095c0.354,0.588,0.462,1.226,0.394,1.903c-0.053,0.533-0.24,1.016-0.546,1.448
			c-0.374,0.53-0.868,0.914-1.479,1.142c-0.317,0.119-0.644,0.181-0.985,0.193C5.257,21.619,4.434,21.23,3.77,20.49
			c-0.413-0.461-0.65-1.014-0.737-1.627c-0.024-0.179-0.034-0.361-0.021-0.542c0.006-0.089-0.026-0.106-0.11-0.105
			c-0.397,0.005-0.795,0.002-1.192,0.002c-0.027,0-0.054,0-0.077-0.017c0-1.157,0.001-2.314,0.001-3.472
			c0.624-0.001,1.248-0.003,1.871,0c0.086,0,0.112-0.019,0.104-0.108c-0.042-0.42-0.079-0.841-0.117-1.262
			c-0.026-0.296-0.054-0.592-0.074-0.888c-0.021-0.313-0.054-0.626-0.083-0.938c-0.007-0.075,0.003-0.11,0.097-0.119
			c0.315-0.03,0.628-0.076,0.942-0.116c0.433-0.055,0.865-0.11,1.298-0.164c0.29-0.036,0.581-0.069,0.871-0.104
			C6.626,11.02,6.71,11.007,6.794,11c0.075-0.007,0.102-0.036,0.101-0.117C6.892,9.495,6.893,8.107,6.893,6.719
			c0-0.223,0.003-0.446-0.001-0.668C6.89,5.978,6.906,5.947,6.987,5.949c0.291,0.005,0.582,0.006,0.873,0
			C7.949,5.948,7.97,5.976,7.97,6.06C7.968,7.246,7.969,8.431,7.968,9.617c0,0.438-0.003,0.877-0.008,1.315
			C7.959,11,7.977,11.03,8.052,11.03c0.781-0.002,1.563-0.002,2.344-0.001c0.045,0,0.065-0.005,0.081-0.061
			c0.107-0.388,0.227-0.772,0.336-1.16c0.124-0.437,0.239-0.875,0.364-1.312c0.136-0.475,0.281-0.947,0.417-1.422
			c0.159-0.557,0.311-1.116,0.469-1.673c0.082-0.288,0.17-0.573,0.255-0.859c0.005-0.016,0.004-0.034,0.005-0.051
			c0.03-0.032,0.067-0.039,0.11-0.039c2.203,0.001,4.406,0.002,6.609,0.002c0.034,0,0.068-0.002,0.104-0.003
			c0.028,0.036,0.02,0.078,0.02,0.118c0.001,2.195,0.002,4.391-0.001,6.586c0,0.093,0.025,0.13,0.117,0.165
			c0.489,0.18,0.948,0.418,1.364,0.735c0.285,0.217,0.556,0.449,0.793,0.717c0.323,0.365,0.597,0.762,0.812,1.2
			c0.308,0.628,0.482,1.291,0.524,1.989C22.776,15.989,22.781,16.017,22.785,16.043z"/>
		<path fill-rule="evenodd" clip-rule="evenodd" fill="#FFFFFF" d="M17.711,8.379c0,0.843-0.001,1.686,0.002,2.529
			c0,0.079-0.026,0.101-0.101,0.098c-0.41-0.014-0.814,0.028-1.214,0.116c-0.172,0.038-0.35,0.069-0.51,0.145
			c-0.216,0.102-0.438,0.059-0.656,0.042c-0.997-0.077-1.993-0.16-2.99-0.24c-0.246-0.02-0.251-0.02-0.188-0.254
			c0.155-0.578,0.316-1.154,0.474-1.731c0.205-0.756,0.409-1.512,0.615-2.268c0.09-0.33,0.184-0.658,0.271-0.989
			c0.017-0.063,0.051-0.07,0.104-0.07c0.212,0.001,0.425,0,0.637,0c1.151,0,2.304,0,3.455-0.002c0.082,0,0.104,0.025,0.104,0.106
			C17.71,6.7,17.711,7.54,17.711,8.379z"/>
		<path fill-rule="evenodd" clip-rule="evenodd" fill="#FFFFFF" d="M19.35,17.378c-0.198,0.319-0.452,0.583-0.787,0.76
			c-0.479,0.251-0.986,0.304-1.514,0.219c-0.365-0.059-0.691-0.205-0.979-0.438c-0.175-0.141-0.313-0.313-0.438-0.497
			c-0.227-0.389-0.336-0.803-0.303-1.256c0.016-0.211,0.044-0.416,0.119-0.613v0.001c0.017-0.107,0.085-0.191,0.123-0.29
			c0.155-0.261,0.337-0.497,0.588-0.675c0.482-0.344,1.021-0.453,1.604-0.391c0.368,0.039,0.702,0.164,1.009,0.368
			c0.08,0.042,0.144,0.104,0.207,0.167c0.214,0.204,0.371,0.448,0.492,0.716c0.119,0.281,0.161,0.573,0.16,0.878
			c-0.002,0.342-0.085,0.659-0.23,0.965C19.388,17.321,19.375,17.354,19.35,17.378z"/>
		<path fill-rule="evenodd" clip-rule="evenodd" fill="#FFFFFF" d="M6.263,19.959c-0.838,0.003-1.462-0.42-1.678-1.081
			c-0.179-0.551-0.05-1.048,0.351-1.467c0.322-0.338,0.732-0.487,1.191-0.487c0.756-0.001,1.425,0.475,1.592,1.214
			c0.114,0.502-0.024,0.948-0.378,1.323C7.015,19.808,6.6,19.947,6.263,19.959z"/>
		<path fill-rule="evenodd" clip-rule="evenodd" fill="#424242" d="M19.35,17.378c0.08-0.18,0.164-0.357,0.21-0.551
			c0.104-0.44,0.082-0.873-0.066-1.3c-0.009-0.025-0.014-0.053-0.021-0.079c0.095,0.136,0.121,0.295,0.146,0.451
			c0.044,0.269,0.044,0.54-0.002,0.807c-0.039,0.229-0.119,0.447-0.234,0.65C19.377,17.367,19.361,17.371,19.35,17.378z"/>
		<path fill-rule="evenodd" clip-rule="evenodd" fill="#474747" d="M15.449,15.552c-0.083,0.28-0.123,0.564-0.111,0.857
			c0.014,0.324,0.103,0.623,0.249,0.909c0.018,0.033,0.03,0.068,0.046,0.103c-0.099-0.088-0.133-0.214-0.179-0.328
			c-0.096-0.238-0.146-0.491-0.149-0.749c-0.004-0.249,0.034-0.496,0.104-0.736C15.416,15.585,15.422,15.561,15.449,15.552z"/>
		<path fill-rule="evenodd" clip-rule="evenodd" fill="#474747" d="M15.572,15.263c-0.023,0.104-0.083,0.192-0.123,0.29
			C15.446,15.438,15.51,15.351,15.572,15.263z"/>
		<path fill-rule="evenodd" clip-rule="evenodd" fill="#464646" d="M18.98,14.732c-0.069-0.056-0.138-0.111-0.207-0.167
			C18.868,14.59,18.932,14.651,18.98,14.732z"/>
	</g>
</g>
</svg>
