<?xml version="1.0" encoding="utf-8"?>
<!-- Generator: Adobe Illustrator 16.0.0, SVG Export Plug-In . SVG Version: 6.00 Build 0)  -->
<!DOCTYPE svg PUBLIC "-//W3C//DTD SVG 1.1//EN" "http://www.w3.org/Graphics/SVG/1.1/DTD/svg11.dtd">
<svg version="1.1" id="Layer_1" xmlns="http://www.w3.org/2000/svg" xmlns:xlink="http://www.w3.org/1999/xlink" x="0px" y="0px"
	 width="24px" height="24px" viewBox="0 0 24 24" enable-background="new 0 0 24 24" xml:space="preserve">
<g>
	<g>
		<path fill-rule="evenodd" clip-rule="evenodd" fill="#FFFFFF" d="M-253.056,1.117c3.972,0,7.944,0.001,11.916-0.005
			c0.171,0,0.206,0.035,0.205,0.211c-0.006,4.855-0.004,9.71-0.004,14.565c-0.025,0.018-0.049,0.018-0.074,0
			c-0.42-0.474-0.914-0.853-1.455-1.165c-0.235-0.136-0.341-0.31-0.347-0.596c-0.014-0.589-0.147-1.147-0.45-1.666
			c-0.27-0.462-0.507-0.948-0.671-1.463c-0.06-0.187-0.132-0.223-0.305-0.118c-0.67,0.407-1.213,0.96-1.711,1.563
			c-0.178,0.215-0.347,0.438-0.547,0.634c-0.26,0.255-0.573,0.386-0.925,0.402c-0.608,0.028-1.217-0.024-1.826,0.03
			c-0.145,0.014-0.257-0.074-0.347-0.178c-0.68-0.785-1.561-1.179-2.536-1.398c-0.375-0.084-0.747-0.184-1.108-0.318
			c-0.126-0.047-0.25-0.057-0.243,0.129c0.029,0.811-0.125,1.622,0.035,2.435c0.185,0.942,0.704,1.652,1.747,1.767
			c0.058,0.007,0.115,0.021,0.172,0.032c0.17,0.034,0.194,0.143,0.135,0.287c-0.062,0.149-0.116,0.303-0.171,0.455
			c-0.206,0.574-0.28,1.163-0.188,1.77c0.028,0.188-0.007,0.353-0.105,0.515c-0.453,0.748-0.225,1.521,0.55,1.899
			c0.089,0.044,0.257,0.04,0.237,0.173c-0.016,0.104-0.173,0.061-0.266,0.088c-0.032,0.01-0.064,0.019-0.097,0.025
			c-1.282,0.081-2.563,0.097-3.848,0.027c-1.385-0.075-2.756-0.243-4.118-0.512c-0.098-0.02-0.197-0.037-0.293-0.067
			c-0.31-0.096-0.565-0.029-0.788,0.227c-0.559,0.645-1.272,0.501-1.636,0.188c-0.502-0.433-0.598-1.233-0.213-1.82
			c0.084-0.129,0.178-0.249,0.282-0.361c0.305-0.327,0.414-0.718,0.342-1.16c-0.114-0.703-0.174-1.416-0.171-2.124
			c0.01-1.952,0.175-3.887,0.85-5.739c0.035-0.096,0.073-0.191,0.112-0.286c0.076-0.185,0.207-0.285,0.406-0.284
			c0.075,0,0.15-0.002,0.226-0.002c4.271,0,8.542,0,12.813,0c0.083,0,0.167-0.002,0.25,0.004c0.266,0.02,0.452,0.146,0.552,0.409
			c0.243,0.641,0.42,1.301,0.559,1.974c0.017,0.082,0.02,0.168,0.06,0.247c0.312-0.214,0.354-0.309,0.285-0.65
			c-0.111-0.547-0.28-1.076-0.47-1.599c-0.111-0.305-0.089-0.411,0.171-0.59c0.393-0.271,0.545-0.653,0.544-1.12
			c-0.001-0.334,0.002-0.669-0.001-1.003c-0.006-0.559-0.236-0.975-0.747-1.198c-0.233-0.102-0.337-0.263-0.36-0.528
			c-0.128-1.462-1.2-2.594-2.61-2.803c-0.364-0.054-0.717-0.038-1.066,0.052c-0.254,0.065-0.457,0.018-0.634-0.179
			c-0.519-0.574-1.167-0.9-1.91-1.044C-252.927,1.234-253.042,1.252-253.056,1.117z"/>
		<path fill-rule="evenodd" clip-rule="evenodd" fill="#FFFFFF" d="M-240.995,15.886c0.019,0,0.037,0.001,0.056,0.002
			c0,2.394-0.002,4.786,0.004,7.18c0,0.153-0.03,0.185-0.179,0.184c-7.26-0.004-14.52-0.004-21.78,0
			c-0.149,0.001-0.181-0.03-0.179-0.184c0.009-0.918,0.004-1.836,0.004-2.754c0.134,0.018,0.131,0.142,0.156,0.231
			c0.34,1.213,1.717,1.577,2.573,0.747c0.214-0.208,0.458-0.261,0.739-0.201c1.226,0.26,2.465,0.435,3.712,0.524
			c1.313,0.095,2.629,0.104,3.945,0.026c0.457-0.026,0.911-0.058,1.401-0.118c-0.117-0.17-0.278-0.231-0.393-0.344
			c-0.063-0.192,0.094-0.146,0.169-0.145c0.194,0.002,0.341,0.125,0.484,0.243c0.506,0.417,1.079,0.696,1.725,0.741
			c0.383,0.026,0.625,0.194,0.84,0.495c0.166,0.232,0.415,0.386,0.659,0.532c-0.246-0.162-0.405-0.401-0.54-0.656
			c-0.105-0.199-0.042-0.352,0.163-0.383c0.642-0.1,1.224-0.377,1.816-0.622c0.012-0.004,0.025-0.011,0.036-0.02
			c-0.025,0.003-0.045,0.02-0.07,0.025c-0.913,0.425-1.86,0.597-2.854,0.423c-0.459-0.081-0.878-0.266-1.254-0.55
			c-0.054-0.041-0.108-0.082-0.147-0.139c-0.034-0.049-0.07-0.101-0.027-0.162c0.033-0.048,0.083-0.053,0.135-0.046
			c0.108,0.015,0.209,0.058,0.313,0.091c0.591,0.19,1.151,0.195,1.634-0.28c0.048-0.048,0.108-0.085,0.17-0.106
			c0.646-0.228,1.115-0.673,1.458-1.235c-0.133,0.128-0.266,0.295-0.432,0.425c-0.166,0.131-0.339,0.251-0.521,0.355
			c-0.234,0.134-0.316,0.085-0.333-0.185c-0.057-0.938-0.351-1.321-1.216-1.624c-0.758-0.266-1.507-0.246-2.255,0.033
			c-0.36,0.135-0.468,0.053-0.487-0.34c-0.034-0.705,0.038-1.388,0.376-2.019c0.147-0.274,0.257-0.313,0.551-0.2
			c-0.273-0.129-0.295-0.335-0.213-0.601c0.266-0.862-0.097-1.556-0.974-2.003c0.383,0.336,0.695,0.723,0.711,1.286
			c0.004,0.148-0.007,0.293-0.047,0.433c-0.134,0.467-0.566,0.67-1.069,0.502c-0.357-0.118-0.627-0.354-0.812-0.687
			c-0.22-0.396-0.321-0.826-0.325-1.28c-0.002-0.343,0-0.686,0-1.029c0-0.138,0.016-0.273,0.061-0.404
			c0.043-0.123,0.126-0.185,0.252-0.146c0.694,0.212,1.42,0.33,2.054,0.721c0.351,0.217,0.694,0.446,0.939,0.796
			c0.076,0.109,0.134,0.219,0.064,0.378c0.876-0.203,1.725,0.021,2.577,0.021c0.55,0,0.959-0.198,1.265-0.674
			c0.437-0.682,0.916-1.33,1.547-1.842c0.251-0.204,0.353-0.188,0.448,0.12c0.102,0.333,0.274,0.623,0.451,0.915
			c0.346,0.575,0.557,1.185,0.44,1.878c-0.07,0.415-0.268,0.717-0.665,0.854c-0.373,0.129-0.69,0.004-0.964-0.258
			c-0.464-0.442-0.564-0.913-0.324-1.513c0.073-0.183,0.153-0.362,0.262-0.524c0.002-0.002,0.007-0.009,0.015-0.018
			c-0.008-0.007-0.007,0.005-0.012,0.007c-0.137,0.164-0.284,0.315-0.394,0.5c-0.321,0.543-0.312,1.093-0.013,1.633
			c0.139,0.252,0.324,0.474,0.549,0.66c0.563,0.466,0.846,1.109,1.052,1.779c0.032-0.437-0.002-0.618-0.237-1.252
			c-0.11-0.298-0.1-0.332,0.196-0.414c0.282-0.077,0.486-0.25,0.649-0.49c0.196-0.288,0.238-0.302,0.56-0.179
			c0.415,0.158,0.811,0.359,1.189,0.595C-241.188,15.674-241.081,15.767-240.995,15.886z"/>
		<path fill-rule="evenodd" clip-rule="evenodd" fill="#231F20" d="M-250.947,21.135c0.249,0.057,0.382,0.282,0.583,0.447
			c-0.375,0.039-0.75,0.089-1.126,0.113c-2.741,0.18-5.461,0.035-8.154-0.548c-0.225-0.049-0.409-0.016-0.595,0.153
			c-1.082,0.982-2.457,0.52-2.789-0.928c-0.005-0.022-0.027-0.04-0.041-0.06c0-0.188,0-0.377,0-0.565
			c0.002-0.488,0.256-0.86,0.552-1.201c0.223-0.257,0.297-0.52,0.239-0.867c-0.181-1.077-0.2-2.169-0.15-3.257
			c0.073-1.598,0.304-3.172,0.853-4.682c0.139-0.381,0.134-0.383-0.177-0.606c-0.269-0.192-0.424-0.468-0.48-0.787
			c-0.099-0.56-0.081-1.128-0.015-1.69c0.058-0.493,0.335-0.836,0.774-1.026c0.208-0.09,0.309-0.218,0.349-0.449
			c0.276-1.598,1.402-2.682,2.966-2.91c0.575-0.084,1.11,0.025,1.642,0.22c0.331,0.121,0.331,0.121,0.553-0.146
			c0.444-0.536,0.991-0.91,1.646-1.122c0.233-0.076,0.478-0.045,0.71-0.107c0.017,0,0.033,0,0.05,0c0.134,0.043,0.267,0.043,0.401,0
			c0.033,0,0.066,0,0.1,0c0.158,0.099,0.345,0.074,0.516,0.122c0.643,0.178,1.201,0.501,1.655,1
			c0.151,0.166,0.293,0.225,0.525,0.171c1.926-0.445,3.675,0.904,3.811,2.932c0.011,0.163,0.081,0.25,0.221,0.302
			c0.636,0.232,0.899,0.714,0.883,1.388c-0.008,0.343,0.003,0.686-0.002,1.029c-0.008,0.46-0.186,0.838-0.577,1.071
			c-0.209,0.125-0.253,0.247-0.159,0.474c0.222,0.535,0.361,1.098,0.501,1.661c0.063,0.255,0.039,0.441-0.166,0.604
			c-0.084,0.066-0.147,0.16-0.241,0.267c-0.114-0.534-0.198-1.045-0.355-1.538c-0.093-0.292-0.196-0.58-0.286-0.873
			c-0.083-0.271-0.262-0.373-0.528-0.371c-0.935,0.006-1.869,0.007-2.803,0.007c-3.479-0.001-6.957-0.002-10.436-0.008
			c-0.197,0-0.304,0.073-0.373,0.261c-0.475,1.297-0.75,2.637-0.855,4.018c-0.085,1.13-0.106,2.259,0.007,3.389
			c0.031,0.306,0.074,0.611,0.1,0.918c0.03,0.362-0.103,0.664-0.339,0.932c-0.246,0.278-0.482,0.563-0.532,0.964
			c-0.066,0.534,0.169,1.064,0.593,1.284c0.465,0.24,0.929,0.176,1.31-0.265c0.286-0.33,0.579-0.374,0.975-0.285
			c2.482,0.553,4.996,0.712,7.53,0.579c0.216-0.011,0.432-0.012,0.648-0.018C-251.27,21.105-251.108,21.093-250.947,21.135z"/>
		<path fill-rule="evenodd" clip-rule="evenodd" fill="#FFFFFF" d="M-253.607,1.117c-0.161,0.095-0.347,0.073-0.519,0.12
			c-0.74,0.202-1.357,0.601-1.829,1.22c-0.149,0.195-0.289,0.232-0.512,0.14c-2.095-0.864-4.255,0.4-4.605,2.688
			c-0.028,0.184-0.103,0.306-0.288,0.373c-0.57,0.207-0.842,0.647-0.851,1.255c-0.007,0.461-0.042,0.925,0.032,1.385
			c0.062,0.379,0.244,0.676,0.577,0.849c0.212,0.11,0.228,0.233,0.148,0.451c-0.808,2.218-1.011,4.52-0.881,6.865
			c0.027,0.496,0.073,0.99,0.157,1.479c0.032,0.187-0.041,0.329-0.148,0.47c-0.257,0.334-0.543,0.648-0.664,1.074
			c-0.025,0.087-0.002,0.192-0.081,0.262c0-6.134,0.001-12.267-0.005-18.399c0-0.193,0.042-0.237,0.23-0.237
			C-259.766,1.119-256.687,1.117-253.607,1.117z"/>
		<path fill-rule="evenodd" clip-rule="evenodd" fill="#929090" d="M-253.156,1.117c-0.134,0.078-0.267,0.081-0.401,0
			C-253.423,1.117-253.29,1.117-253.156,1.117z"/>
		<path fill-rule="evenodd" clip-rule="evenodd" fill="#231F20" d="M-250.947,21.135c-0.161-0.001-0.322-0.001-0.484-0.002
			c0.098-0.064,0.212-0.026,0.35-0.065c-0.354-0.121-0.64-0.299-0.85-0.589c-0.292-0.402-0.335-0.955-0.068-1.372
			c0.153-0.237,0.196-0.458,0.155-0.743c-0.103-0.715,0.07-1.396,0.363-2.04c0.093-0.206,0.112-0.275-0.154-0.302
			c-1.41-0.143-1.782-1.09-1.917-2.058c-0.107-0.769,0.014-1.541,0.013-2.312c0-0.112,0.017-0.204,0.175-0.146
			c0.619,0.229,1.268,0.346,1.896,0.54c0.724,0.224,1.351,0.619,1.869,1.186c0.148,0.162,0.287,0.219,0.518,0.199
			c0.472-0.039,0.95-0.022,1.425-0.008c0.611,0.018,1.067-0.249,1.431-0.741c0.41-0.554,0.87-1.064,1.413-1.485
			c0.212-0.164,0.442-0.304,0.664-0.455c0.108-0.074,0.184-0.091,0.229,0.077c0.164,0.596,0.443,1.141,0.745,1.672
			c0.294,0.517,0.43,1.075,0.415,1.668c-0.006,0.229,0.07,0.364,0.263,0.47c0.511,0.278,0.966,0.638,1.382,1.05
			c0.057,0.057,0.149,0.096,0.118,0.206c-0.466-0.319-0.951-0.604-1.477-0.807c-0.359-0.139-0.359-0.139-0.568,0.185
			c-0.164,0.254-0.382,0.431-0.681,0.476c-0.21,0.031-0.227,0.114-0.139,0.303c0.226,0.483,0.323,0.996,0.25,1.558
			c-0.126-0.063-0.11-0.178-0.134-0.265c-0.189-0.69-0.507-1.293-1.055-1.763c-0.384-0.329-0.676-0.738-0.747-1.267
			c-0.091-0.68,0.213-1.188,0.692-1.614c0.05-0.013,0.074,0.002,0.06,0.059c-0.155,0.32-0.333,0.629-0.387,0.993
			c-0.062,0.423,0.185,0.916,0.591,1.162c0.354,0.216,0.724,0.197,1.021-0.062c0.353-0.306,0.375-0.727,0.352-1.152
			c-0.026-0.472-0.192-0.898-0.441-1.292c-0.209-0.33-0.405-0.667-0.5-1.054c-0.047-0.192-0.122-0.173-0.252-0.058
			c-0.607,0.533-1.132,1.141-1.55,1.837c-0.343,0.573-0.826,0.815-1.469,0.764c-0.432-0.035-0.866-0.054-1.298-0.08
			c-0.439-0.026-0.879-0.06-1.335,0.125c0.309-0.309,0.049-0.481-0.118-0.658c-0.501-0.529-1.128-0.836-1.81-1.034
			c-0.312-0.091-0.625-0.173-0.937-0.262c-0.125-0.036-0.224-0.054-0.24,0.135c-0.069,0.804-0.135,1.607,0.165,2.382
			c0.165,0.425,0.437,0.74,0.876,0.884c0.627,0.205,1.08-0.153,1.048-0.833c-0.021-0.444-0.219-0.8-0.513-1.109
			c-0.115-0.121-0.229-0.243-0.335-0.356c0.769,0.236,1.566,1.01,1.255,2.095c-0.026,0.09-0.059,0.179-0.079,0.27
			c-0.024,0.108-0.015,0.206,0.112,0.246c0.158,0.05,0.217,0.168,0.218,0.334c-0.412-0.311-0.463-0.294-0.684,0.178
			c-0.298,0.639-0.359,1.312-0.294,2.005c0.018,0.195,0.091,0.24,0.279,0.162c0.855-0.354,1.716-0.362,2.58-0.021
			c0.779,0.308,1.118,0.813,1.085,1.665c-0.007,0.184,0.026,0.213,0.184,0.126c0.401-0.223,0.749-0.511,1.052-0.858
			c0.047-0.055,0.073-0.136,0.197-0.162c-0.214,0.472-0.503,0.844-0.876,1.15c-0.064,0.053-0.133,0.104-0.206,0.144
			c-0.365,0.197-0.729,0.392-1.076,0.629c-0.421,0.287-0.894,0.179-1.349,0.025c-0.127-0.043-0.248-0.14-0.416-0.081
			c0.033,0.107,0.119,0.147,0.186,0.2c0.75,0.59,1.612,0.689,2.514,0.596c0.567-0.06,1.101-0.252,1.632-0.452
			c0.049-0.018,0.069,0.002,0.063,0.054c-0.579,0.323-1.186,0.566-1.838,0.679c-0.249,0.044-0.273,0.087-0.151,0.311
			c0.174,0.315,0.403,0.579,0.754,0.788c-0.161,0.046-0.238-0.022-0.316-0.066c-0.349-0.194-0.641-0.457-0.873-0.788
			c-0.084-0.12-0.184-0.187-0.33-0.192c-0.793-0.029-1.483-0.328-2.091-0.846C-250.555,21.134-250.726,21.018-250.947,21.135z"/>
		<path fill-rule="evenodd" clip-rule="evenodd" fill="#272424" d="M-247.021,17.065c-0.177-0.001-0.371-0.202-0.372-0.384
			c0-0.184,0.193-0.367,0.383-0.365c0.2,0.001,0.369,0.178,0.363,0.377C-246.652,16.887-246.834,17.067-247.021,17.065z"/>
		<path fill-rule="evenodd" clip-rule="evenodd" fill="#322F2F" d="M-249.946,17.384c0.549-0.169,1.075-0.137,1.57,0.186
			c-0.489-0.073-0.976-0.171-1.475-0.129C-249.899,17.452-249.959,17.483-249.946,17.384z"/>
		<path fill-rule="evenodd" clip-rule="evenodd" fill="#2F2C2D" d="M-250.25,17.795c0.522-0.166,1.017-0.096,1.489,0.173
			c-0.409-0.045-0.816-0.112-1.229-0.114C-250.081,17.85-250.19,17.937-250.25,17.795z"/>
		<path fill-rule="evenodd" clip-rule="evenodd" fill="#2B2829" d="M-250.968,16.438c0.013-0.16,0.063-0.289,0.213-0.282
			c0.147,0.008,0.2,0.142,0.196,0.278c-0.004,0.13-0.04,0.273-0.197,0.272C-250.923,16.705-250.956,16.561-250.968,16.438z"/>
		<path fill-rule="evenodd" clip-rule="evenodd" fill="#312E2E" d="M-247.486,16.079c0.25-0.279,0.493-0.356,0.771-0.271
			c0.202,0.062,0.33,0.208,0.388,0.507C-246.666,15.911-247.029,15.91-247.486,16.079z"/>
		<path fill-rule="evenodd" clip-rule="evenodd" fill="#6E6B6B" d="M-250.25,17.795c0.071,0.09,0.179,0.01,0.259,0.059
			c-0.118,0.018-0.235,0.034-0.358,0.053C-250.356,17.812-250.306,17.801-250.25,17.795z"/>
		<path fill-rule="evenodd" clip-rule="evenodd" fill="#4B4849" d="M-244.793,12.75c-0.02-0.02-0.04-0.039-0.06-0.059
			c0.027-0.048,0.063-0.117,0.115-0.072C-244.704,12.649-244.746,12.718-244.793,12.75z"/>
		<path fill-rule="evenodd" clip-rule="evenodd" fill="#BCBBBB" d="M-249.946,17.384c0.009,0.061,0.064,0.036,0.096,0.057
			c-0.052,0.042-0.116,0.07-0.163,0.014C-250.036,17.428-249.992,17.386-249.946,17.384z"/>
		<path fill-rule="evenodd" clip-rule="evenodd" fill="#545151" d="M-245.55,21.385c-0.021-0.018-0.042-0.036-0.063-0.054
			c0.046-0.047,0.127-0.096,0.159-0.047C-245.411,21.352-245.504,21.362-245.55,21.385z"/>
		<path fill-rule="evenodd" clip-rule="evenodd" fill="#FFFFFF" d="M-253.823,6.158c2.319,0,4.638,0,6.957,0
			c0.618,0,0.825,0.199,0.843,0.837c0.011,0.376,0.012,0.755-0.013,1.13c-0.027,0.411-0.284,0.643-0.688,0.664
			c-0.092,0.004-0.184,0.004-0.275,0.004c-4.546,0-9.093-0.001-13.639-0.003c-0.117,0-0.235,0.004-0.35-0.009
			c-0.399-0.045-0.628-0.295-0.641-0.715c-0.012-0.377-0.016-0.754-0.005-1.131c0.014-0.542,0.253-0.775,0.78-0.775
			c2.344-0.001,4.688,0,7.032,0C-253.823,6.159-253.823,6.158-253.823,6.158z"/>
		<path fill-rule="evenodd" clip-rule="evenodd" fill="#FFFFFF" d="M-253.857,5.585c-2.095,0-4.189,0-6.283,0
			c-0.394,0-0.43-0.048-0.34-0.456c0.4-1.83,2.37-2.778,3.994-1.923c0.052,0.027,0.104,0.055,0.155,0.083
			c0.319,0.17,0.397,0.151,0.592-0.157c0.435-0.69,1.018-1.176,1.812-1.346c1.071-0.229,1.985,0.094,2.698,0.934
			c0.27,0.317,0.505,0.392,0.904,0.278c1.531-0.438,2.993,0.582,3.216,2.206c0.041,0.297-0.012,0.371-0.313,0.376
			c-0.518,0.008-1.035,0.003-1.552,0.003c-1.627,0-3.254,0-4.881,0C-253.857,5.583-253.857,5.584-253.857,5.585z"/>
		<path fill-rule="evenodd" clip-rule="evenodd" fill="#FFFFFF" d="M-249.947,18.52c0.659,0.014,1.182,0.081,1.639,0.411
			c0.448,0.323,0.594,0.857,0.36,1.326c-0.239,0.479-0.727,0.678-1.246,0.484c-0.444-0.165-0.879-0.211-1.339-0.06
			c-0.411,0.135-0.969-0.169-1.158-0.592c-0.18-0.403-0.045-0.865,0.35-1.145C-250.885,18.623-250.369,18.52-249.947,18.52z"/>
		<path fill-rule="evenodd" clip-rule="evenodd" fill="#272424" d="M-248.148,4.875c0.002,0.273-0.065,0.412-0.28,0.418
			c-0.191,0.005-0.316-0.199-0.306-0.5c0.006-0.183,0.078-0.32,0.278-0.321C-248.266,4.47-248.146,4.665-248.148,4.875z"/>
		<path fill-rule="evenodd" clip-rule="evenodd" fill="#262223" d="M-249.893,3.571c0.29,0.007,0.511,0.176,0.499,0.382
			c-0.011,0.183-0.126,0.246-0.285,0.249c-0.261,0.004-0.513-0.195-0.5-0.39C-250.168,3.646-250.074,3.567-249.893,3.571z"/>
		<path fill-rule="evenodd" clip-rule="evenodd" fill="#262223" d="M-258.151,4.1c-0.108-0.005-0.209-0.084-0.215-0.261
			c-0.007-0.194,0.224-0.364,0.488-0.371c0.178-0.005,0.291,0.072,0.304,0.257C-257.562,3.908-257.837,4.102-258.151,4.1z"/>
		<path fill-rule="evenodd" clip-rule="evenodd" fill="#262223" d="M-259.278,4.465c0.305,0.006,0.47,0.125,0.465,0.316
			c-0.005,0.236-0.162,0.272-0.345,0.267c-0.293-0.008-0.474-0.132-0.456-0.324C-259.592,4.496-259.417,4.479-259.278,4.465z"/>
		<path fill-rule="evenodd" clip-rule="evenodd" fill="#252122" d="M-251.025,20.158c-0.194-0.016-0.316-0.155-0.364-0.36
			c-0.048-0.206,0.024-0.384,0.169-0.529c0.04-0.04,0.082-0.009,0.107,0.02c0.133,0.149,0.29,0.282,0.378,0.468
			C-250.641,19.949-250.778,20.15-251.025,20.158z"/>
		<path fill-rule="evenodd" clip-rule="evenodd" fill="#262223" d="M-248.364,19.801c-0.018,0.157-0.044,0.302-0.167,0.396
			c-0.15,0.114-0.316,0.122-0.454-0.008c-0.137-0.128-0.09-0.275,0.013-0.408c0.057-0.073,0.108-0.154,0.178-0.212
			c0.072-0.061,0.082-0.226,0.204-0.184c0.121,0.042,0.175,0.172,0.201,0.302C-248.38,19.729-248.371,19.77-248.364,19.801z"/>
	</g>
</g>
<g>
	<g>
		<path fill-rule="evenodd" clip-rule="evenodd" fill="none" d="M-207.954,18.736c-3.646,0-7.293-0.001-10.939,0.004
			c-0.148,0-0.194-0.019-0.193-0.211c0.006-4.321,0.006-8.643,0.001-12.964c0-0.175,0.043-0.199,0.18-0.199
			c7.3,0.004,14.601,0.004,21.902-0.002c0.172,0,0.18,0.062,0.18,0.226c-0.004,4.313-0.005,8.625,0.001,12.938
			c0,0.189-0.041,0.214-0.192,0.213C-200.661,18.734-204.307,18.736-207.954,18.736z M-205.528,5.429
			c-0.291,0-0.584-0.029-0.873,0.005c-1.094,0.131-2.186,0.261-3.264,0.538c-0.718,0.184-1.423,0.408-2.115,0.684
			c-1.102,0.439-2.153,1.011-3.137,1.739c-0.217,0.161-0.222,0.31,0.001,0.469c0.392,0.278,0.708,0.642,0.946,1.098
			c0.105,0.201,0.135,0.41,0.089,0.636c-0.012,0.057-0.012,0.137-0.083,0.137c-0.066,0-0.079-0.073-0.095-0.132
			c-0.014-0.05-0.023-0.103-0.037-0.153c-0.116-0.443-0.248-0.878-0.601-1.153c-0.252-0.196-0.494-0.401-0.782-0.542
			c-0.473-0.232-0.904-0.558-1.217-1.053c-0.048-0.076-0.099-0.177-0.199-0.146c-0.087,0.026-0.092,0.135-0.113,0.216
			c-0.07,0.275-0.069,0.55-0.033,0.836c0.068,0.543,0.335,0.998,0.47,1.512c0.053,0.201,0.208,0.414,0.396,0.496
			c0.342,0.15,0.669,0.327,0.983,0.541c0.066,0.045,0.157,0.072,0.136,0.183c-0.025,0.137-0.136,0.143-0.224,0.123
			c-0.303-0.069-0.587-0.201-0.818-0.441c-0.187-0.194-0.36-0.407-0.529-0.622c-0.094-0.119-0.166-0.102-0.243,0.008
			c-0.229,0.332-0.376,0.714-0.425,1.128c-0.048,0.411-0.068,0.832-0.197,1.218c-0.221,0.661-0.566,1.202-1.195,1.413
			c-0.114,0.038-0.185,0.127-0.142,0.253c0.141,0.403,0.309,0.794,0.634,1.048c0.165,0.129,0.306,0.027,0.303-0.202
			c-0.001-0.117-0.034-0.225-0.093-0.321c-0.062-0.101-0.121-0.204-0.177-0.309c-0.034-0.063-0.054-0.142,0.001-0.194
			c0.053-0.052,0.097,0.016,0.137,0.053c0.182,0.166,0.344,0.352,0.396,0.626c0.025,0.133,0.091,0.189,0.199,0.14
			c0.353-0.161,0.731-0.258,1.033-0.548c0.058-0.056,0.126-0.1,0.196-0.135c0.047-0.023,0.112-0.037,0.15,0.018
			c0.052,0.073-0.003,0.138-0.044,0.183c-0.088,0.098-0.182,0.189-0.28,0.273c-0.209,0.18-0.437,0.321-0.688,0.413
			c-0.08,0.028-0.17,0.083-0.165,0.194c0.007,0.133,0.115,0.113,0.196,0.125c0.114,0.018,0.227,0.034,0.341,0.053
			c0.572,0.093,1.115-0.163,1.68-0.191c0.6-0.029,1.154-0.316,1.697-0.603c0.276-0.146,0.552-0.231,0.862-0.22
			c0.443,0.016,0.885-0.033,1.325-0.102c0.237-0.037,0.273-0.118,0.186-0.381c-0.02-0.059-0.052-0.12,0-0.169
			c0.061-0.058,0.12-0.015,0.161,0.04c0.089,0.12,0.172,0.245,0.236,0.388c0.226,0.498,0.362,1.031,0.44,1.579
			c0.086,0.605,0.186,1.227-0.121,1.802c-0.068,0.128-0.147,0.247-0.221,0.37c-0.038,0.062-0.112,0.114-0.063,0.204
			c0.037,0.069,0.104,0.055,0.167,0.052c0.138-0.008,0.277-0.022,0.413-0.004c0.27,0.037,0.444-0.071,0.517-0.382
			c0.037-0.156,0.121-0.19,0.244-0.107c0.192,0.13,0.286,0.08,0.303-0.182c0.014-0.219,0.02-0.444-0.008-0.661
			c-0.07-0.545-0.021-1.066,0.138-1.586c0.117-0.381,0.216-0.77,0.3-1.165c0.089-0.419,0.048-0.845,0.119-1.26
			c0.011-0.063-0.01-0.161,0.083-0.155c0.064,0.004,0.073,0.079,0.087,0.139c0.077,0.332,0.046,0.668,0.025,1.001
			c-0.018,0.287,0.026,0.366,0.281,0.371c0.451,0.01,0.9,0.085,1.353,0.056c0.086-0.006,0.18-0.003,0.244,0.058
			c0.205,0.195,0.395,0.241,0.589-0.015c0.021-0.028,0.07-0.037,0.106-0.041c0.357-0.038,0.717-0.118,1.072-0.097
			c0.317,0.02,0.576-0.021,0.877-0.189c0.448-0.251,0.948-0.39,1.416-0.609c0.226-0.105,0.254-0.188,0.123-0.427
			c-0.197-0.36-0.379-0.728-0.365-1.175c0.002-0.065-0.023-0.167,0.057-0.176c0.075-0.009,0.078,0.092,0.096,0.156
			c0.165,0.583,0.412,1.121,0.715,1.617c0.295,0.485,0.671,0.893,1.066,1.272c0.235,0.227,0.42,0.499,0.473,0.854
			c0.132,0.89,0.086,1.744-0.428,2.489c-0.104,0.15-0.046,0.257,0.097,0.285c0.126,0.026,0.26,0.005,0.389,0.017
			c0.376,0.035,0.688-0.046,0.799-0.537c0.025-0.109,0.087-0.146,0.195-0.109c0.221,0.073,0.325-0.014,0.348-0.281
			c0.023-0.275-0.018-0.544-0.061-0.815c-0.089-0.576-0.038-1.154,0.13-1.696c0.11-0.355,0.138-0.64-0.051-0.968
			c-0.203-0.353-0.225-0.745-0.029-1.128c0.078-0.152,0.15-0.308,0.232-0.456c0.554-0.992,0.814-2.039,0.504-3.216
			c-0.139-0.529-0.119-0.536,0.313-0.766c0.007-0.003,0.014-0.009,0.021-0.012c0.155-0.07,0.255-0.032,0.268,0.181
			c0.007,0.132-0.003,0.265,0.033,0.394c0.041,0.143,0.096,0.162,0.197,0.063c0.208-0.203,0.264-0.468,0.098-0.729
			c-0.134-0.21-0.164-0.41-0.086-0.641c0.159-0.474-0.287-0.986-0.598-1.055c-0.245-0.054-0.543,0.084-0.685,0.325
			c-0.151,0.257-0.14,0.454,0.028,0.761c0.048,0.088,0.189,0.193,0.093,0.285c-0.12,0.113-0.189-0.078-0.271-0.156
			c-0.017-0.017-0.029-0.041-0.044-0.061c-0.324-0.445-0.718-0.795-1.147-1.089c-0.897-0.614-1.87-0.988-2.894-1.216
			C-203.547,5.546-204.532,5.428-205.528,5.429z M-201.854,13.869c-0.208,0.139-0.433,0.245-0.661,0.345
			c-0.161,0.071-0.185,0.19-0.103,0.354c0.081,0.16,0.176,0.313,0.235,0.484c0.111,0.319,0.307,0.613,0.213,1
			c-0.093,0.386-0.209,0.754-0.392,1.095c-0.209,0.393-0.443,0.762-0.722,1.092c-0.064,0.076-0.136,0.165-0.091,0.279
			c0.039,0.098,0.137,0.106,0.22,0.11c0.138,0.007,0.276-0.009,0.413,0.007c0.309,0.034,0.54-0.069,0.659-0.427
			c0.054-0.163,0.158-0.179,0.274-0.074c0.12,0.106,0.214,0.068,0.288-0.066c0.049-0.089,0.113-0.179,0.13-0.277
			c0.13-0.767,0.461-1.433,0.775-2.108c0.132-0.283,0.126-0.422-0.078-0.62c-0.311-0.303-0.595-0.636-0.861-0.989
			C-201.634,13.966-201.739,13.924-201.854,13.869z M-212.014,18.536c0.328,0.069,0.551-0.034,0.641-0.44
			c0.041-0.183,0.167-0.195,0.271-0.035c0.098,0.148,0.162,0.09,0.214-0.041c0.067-0.17,0.104-0.347,0.099-0.537
			c-0.011-0.496,0.011-0.987,0.179-1.453c0.109-0.303,0.1-0.598-0.027-0.892c-0.048-0.111-0.105-0.194-0.225-0.181
			c-0.303,0.035-0.606,0.07-0.91,0.106c-0.126,0.015-0.17,0.121-0.171,0.24c-0.001,0.112,0.029,0.225,0.045,0.338
			c0.035,0.242,0.115,0.478,0.103,0.727c-0.029,0.602-0.193,1.152-0.469,1.664c-0.072,0.134-0.241,0.27-0.155,0.436
			C-212.336,18.627-212.148,18.512-212.014,18.536z M-218.905,8.726c-0.136-0.007-0.181,0.139-0.105,0.34
			c0.286,0.762,0.786,1.289,1.399,1.69c0.118,0.077,0.214,0.071,0.286-0.085c0.089-0.195,0.196-0.376,0.33-0.538
			c0.063-0.077,0.099-0.17,0.05-0.289c-0.081-0.199-0.155-0.403-0.222-0.609c-0.05-0.154-0.137-0.215-0.276-0.228
			c-0.228-0.021-0.455-0.056-0.681-0.097C-218.388,8.863-218.655,8.833-218.905,8.726z"/>
		<path fill-rule="evenodd" clip-rule="evenodd" d="M-205.528,5.429c0.997-0.001,1.981,0.117,2.961,0.336
			c1.023,0.229,1.996,0.602,2.894,1.216c0.43,0.294,0.823,0.645,1.147,1.089c0.015,0.021,0.027,0.044,0.044,0.061
			c0.082,0.078,0.151,0.269,0.271,0.156c0.097-0.091-0.045-0.196-0.093-0.285c-0.168-0.307-0.179-0.503-0.028-0.761
			c0.141-0.241,0.439-0.379,0.685-0.325c0.312,0.069,0.757,0.581,0.598,1.055c-0.078,0.231-0.048,0.431,0.086,0.641
			c0.166,0.26,0.11,0.526-0.098,0.729c-0.101,0.099-0.157,0.08-0.197-0.063c-0.037-0.129-0.026-0.262-0.033-0.394
			c-0.012-0.213-0.112-0.251-0.268-0.181c-0.007,0.003-0.013,0.008-0.021,0.012c-0.432,0.229-0.453,0.237-0.313,0.766
			c0.31,1.177,0.049,2.224-0.504,3.216c-0.083,0.148-0.155,0.304-0.232,0.456c-0.196,0.383-0.174,0.775,0.029,1.128
			c0.189,0.328,0.161,0.612,0.051,0.968c-0.168,0.542-0.219,1.12-0.13,1.696c0.042,0.271,0.084,0.54,0.061,0.815
			c-0.023,0.268-0.126,0.354-0.348,0.281c-0.107-0.036-0.17,0-0.195,0.109c-0.111,0.491-0.422,0.572-0.799,0.537
			c-0.129-0.012-0.263,0.01-0.389-0.017c-0.144-0.028-0.201-0.135-0.097-0.285c0.515-0.745,0.56-1.6,0.428-2.489
			c-0.053-0.354-0.238-0.627-0.473-0.854c-0.395-0.38-0.771-0.787-1.066-1.272c-0.303-0.496-0.55-1.034-0.715-1.617
			c-0.018-0.064-0.021-0.166-0.096-0.156c-0.081,0.01-0.055,0.111-0.057,0.176c-0.014,0.447,0.168,0.815,0.365,1.175
			c0.131,0.238,0.103,0.321-0.123,0.427c-0.468,0.22-0.968,0.358-1.416,0.609c-0.301,0.169-0.56,0.209-0.877,0.189
			c-0.355-0.021-0.715,0.059-1.072,0.097c-0.037,0.004-0.085,0.013-0.106,0.041c-0.194,0.256-0.384,0.21-0.589,0.015
			c-0.064-0.061-0.158-0.063-0.244-0.058c-0.452,0.029-0.901-0.046-1.353-0.056c-0.255-0.005-0.299-0.084-0.281-0.371
			c0.021-0.333,0.052-0.669-0.025-1.001c-0.014-0.06-0.022-0.135-0.087-0.139c-0.094-0.006-0.073,0.093-0.083,0.155
			c-0.07,0.415-0.03,0.841-0.119,1.26c-0.084,0.396-0.183,0.784-0.3,1.165c-0.159,0.52-0.208,1.041-0.138,1.586
			c0.028,0.217,0.021,0.442,0.008,0.661c-0.017,0.262-0.11,0.312-0.303,0.182c-0.124-0.083-0.208-0.049-0.244,0.107
			c-0.073,0.311-0.248,0.419-0.517,0.382c-0.136-0.019-0.275-0.004-0.413,0.004c-0.063,0.003-0.129,0.018-0.167-0.052
			c-0.049-0.09,0.025-0.143,0.063-0.204c0.074-0.123,0.153-0.242,0.221-0.37c0.306-0.575,0.207-1.196,0.121-1.802
			c-0.078-0.548-0.215-1.081-0.44-1.579c-0.064-0.143-0.147-0.268-0.236-0.388c-0.041-0.055-0.1-0.098-0.161-0.04
			c-0.052,0.049-0.02,0.11,0,0.169c0.088,0.263,0.051,0.344-0.186,0.381c-0.44,0.068-0.882,0.117-1.325,0.102
			c-0.31-0.012-0.586,0.074-0.862,0.22c-0.543,0.286-1.097,0.573-1.697,0.603c-0.565,0.028-1.108,0.284-1.68,0.191
			c-0.114-0.019-0.227-0.035-0.341-0.053c-0.081-0.012-0.189,0.008-0.196-0.125c-0.005-0.111,0.085-0.166,0.165-0.194
			c0.251-0.092,0.479-0.233,0.688-0.413c0.098-0.084,0.192-0.176,0.28-0.273c0.041-0.045,0.096-0.109,0.044-0.183
			c-0.038-0.055-0.103-0.041-0.15-0.018c-0.069,0.035-0.138,0.079-0.196,0.135c-0.302,0.29-0.68,0.387-1.033,0.548
			c-0.107,0.05-0.173-0.007-0.199-0.14c-0.052-0.274-0.213-0.46-0.396-0.626c-0.04-0.037-0.084-0.104-0.137-0.053
			c-0.055,0.053-0.035,0.131-0.001,0.194c0.056,0.104,0.116,0.208,0.177,0.309c0.06,0.097,0.092,0.204,0.093,0.321
			c0.003,0.229-0.138,0.331-0.303,0.202c-0.325-0.254-0.493-0.645-0.634-1.048c-0.043-0.126,0.028-0.215,0.142-0.253
			c0.629-0.211,0.975-0.752,1.195-1.413c0.129-0.387,0.149-0.807,0.197-1.218c0.049-0.414,0.196-0.796,0.425-1.128
			c0.077-0.11,0.149-0.127,0.243-0.008c0.169,0.215,0.342,0.428,0.529,0.622c0.231,0.24,0.516,0.372,0.818,0.441
			c0.087,0.02,0.198,0.014,0.224-0.123c0.021-0.111-0.07-0.138-0.136-0.183c-0.314-0.213-0.641-0.39-0.983-0.541
			c-0.188-0.083-0.344-0.295-0.396-0.496c-0.134-0.514-0.402-0.969-0.47-1.512c-0.036-0.287-0.038-0.562,0.033-0.836
			c0.021-0.082,0.026-0.19,0.113-0.216c0.1-0.03,0.151,0.071,0.199,0.146c0.313,0.495,0.744,0.821,1.217,1.053
			c0.289,0.141,0.53,0.346,0.782,0.542c0.353,0.275,0.484,0.71,0.601,1.153c0.013,0.05,0.022,0.103,0.037,0.153
			c0.017,0.059,0.029,0.132,0.095,0.132c0.071,0,0.072-0.08,0.083-0.137c0.046-0.226,0.016-0.435-0.089-0.636
			c-0.238-0.456-0.554-0.819-0.946-1.098c-0.224-0.159-0.219-0.308-0.001-0.469c0.984-0.729,2.035-1.3,3.137-1.739
			c0.691-0.276,1.397-0.5,2.115-0.684c1.079-0.276,2.17-0.407,3.264-0.538C-206.113,5.4-205.819,5.429-205.528,5.429z
			 M-197.424,7.762c-0.011-0.198-0.084-0.341-0.269-0.358c-0.11-0.01-0.196,0.047-0.209,0.187c-0.009,0.094,0.25,0.401,0.335,0.398
			C-197.438,7.986-197.439,7.866-197.424,7.762z"/>
		<path fill-rule="evenodd" clip-rule="evenodd" d="M-201.854,13.869c0.114,0.055,0.219,0.097,0.3,0.204
			c0.266,0.354,0.55,0.687,0.861,0.989c0.204,0.198,0.209,0.337,0.078,0.62c-0.314,0.676-0.645,1.342-0.775,2.108
			c-0.017,0.099-0.081,0.188-0.13,0.277c-0.074,0.135-0.168,0.173-0.288,0.066c-0.116-0.104-0.22-0.089-0.274,0.074
			c-0.119,0.357-0.35,0.461-0.659,0.427c-0.137-0.016-0.275,0-0.413-0.007c-0.083-0.004-0.181-0.013-0.22-0.11
			c-0.044-0.114,0.027-0.203,0.091-0.279c0.279-0.33,0.513-0.699,0.722-1.092c0.183-0.341,0.299-0.709,0.392-1.095
			c0.093-0.387-0.103-0.681-0.213-1c-0.059-0.171-0.154-0.324-0.235-0.484c-0.083-0.164-0.059-0.283,0.103-0.354
			C-202.287,14.114-202.061,14.008-201.854,13.869z"/>
		<path fill-rule="evenodd" clip-rule="evenodd" d="M-212.014,18.536c-0.134-0.024-0.322,0.091-0.404-0.068
			c-0.086-0.166,0.083-0.302,0.155-0.436c0.276-0.512,0.44-1.063,0.469-1.664c0.012-0.249-0.068-0.484-0.103-0.727
			c-0.016-0.113-0.047-0.226-0.045-0.338c0.001-0.119,0.045-0.226,0.171-0.24c0.303-0.036,0.606-0.071,0.91-0.106
			c0.12-0.014,0.177,0.069,0.225,0.181c0.127,0.294,0.136,0.589,0.027,0.892c-0.168,0.466-0.19,0.957-0.179,1.453
			c0.004,0.19-0.032,0.367-0.099,0.537c-0.052,0.131-0.117,0.189-0.214,0.041c-0.105-0.16-0.231-0.147-0.271,0.035
			C-211.463,18.502-211.686,18.605-212.014,18.536z"/>
		<path fill-rule="evenodd" clip-rule="evenodd" d="M-218.905,8.726c0.25,0.107,0.518,0.137,0.781,0.185
			c0.226,0.041,0.453,0.075,0.681,0.097c0.139,0.013,0.226,0.074,0.276,0.228c0.066,0.206,0.141,0.41,0.222,0.609
			c0.049,0.119,0.013,0.212-0.05,0.289c-0.134,0.162-0.241,0.343-0.33,0.538c-0.071,0.156-0.168,0.162-0.286,0.085
			c-0.613-0.401-1.113-0.929-1.399-1.69C-219.086,8.864-219.042,8.719-218.905,8.726z"/>
		<path fill-rule="evenodd" clip-rule="evenodd" fill="none" d="M-197.424,7.762c-0.016,0.104-0.015,0.224-0.143,0.228
			c-0.086,0.002-0.344-0.305-0.335-0.398c0.013-0.14,0.099-0.197,0.209-0.187C-197.508,7.421-197.435,7.564-197.424,7.762z"/>
	</g>
</g>
<g>
	<g>
		<path fill-rule="evenodd" clip-rule="evenodd" fill="#FFFFFF" d="M-174.393,14.728c0-3.402,0-6.803-0.002-10.205
			c0-0.083,0.017-0.1,0.1-0.1c3.546,0.003,7.091,0.002,10.636,0.002c0.015,0.029,0.008,0.06,0.006,0.09
			c-0.058,0.24-0.133,0.475-0.199,0.712c-0.137,0.488-0.277,0.976-0.417,1.463c-0.258,0.903-0.516,1.805-0.775,2.708
			c-0.144,0.497-0.279,0.996-0.425,1.493c-0.047,0.159-0.055,0.167-0.221,0.167c-0.723,0-1.446,0-2.169,0
			c-0.188,0-0.21-0.023-0.21-0.216c-0.001-1.559-0.001-3.118-0.001-4.677c0-0.186,0-0.186-0.187-0.186c-0.224,0-0.446-0.001-0.669,0
			c-0.142,0-0.15,0.009-0.15,0.152c-0.001,0.956,0,1.912,0,2.869c0,0.589,0,1.179,0,1.768c-0.001,0.234-0.015,0.242-0.244,0.272
			c-0.381,0.05-0.761,0.102-1.141,0.148c-0.433,0.053-0.864,0.102-1.296,0.155c-0.255,0.031-0.509,0.074-0.765,0.092
			c-0.087,0.006-0.116,0.051-0.113,0.135c0.007,0.192,0.03,0.383,0.05,0.573c0.064,0.63,0.104,1.262,0.169,1.892
			c0.02,0.19,0.053,0.381,0.049,0.573c-0.003,0.122-0.025,0.148-0.144,0.149c-0.593,0.002-1.186,0.001-1.778,0
			c-0.024,0-0.048-0.002-0.071-0.01C-174.372,14.742-174.383,14.735-174.393,14.728z"/>
		<path fill-rule="evenodd" clip-rule="evenodd" fill="#FFFFFF" d="M-153.192,16.558c0,1.658-0.001,3.317,0.002,4.976
			c0,0.07-0.014,0.085-0.084,0.085c-7.012-0.003-14.024-0.003-21.036,0c-0.07,0-0.084-0.015-0.084-0.085
			c0.003-1.11,0.002-2.221,0.002-3.331c0.009-0.007,0.019-0.012,0.03-0.014c0.394,0.015,0.788,0.003,1.182,0.007
			c0.034,0,0.068,0.001,0.103,0.001c0.079-0.002,0.11,0.039,0.111,0.114c0.002,0.14,0.005,0.28,0.017,0.42
			c0.051,0.621,0.279,1.169,0.667,1.651c0.434,0.542,0.986,0.904,1.656,1.083c0.296,0.079,0.597,0.099,0.904,0.089
			c0.374-0.011,0.724-0.095,1.067-0.229c0.317-0.124,0.595-0.309,0.852-0.529c0.573-0.493,0.925-1.117,1.043-1.86
			c0.092-0.581,0.027-1.155-0.203-1.703c-0.046-0.107-0.112-0.204-0.165-0.308c-0.061-0.121-0.037-0.166,0.097-0.167
			c0.274-0.003,0.549-0.001,0.822-0.001c0.761,0,1.521,0,2.282,0c0.183,0,0.187,0.004,0.21,0.185c0.128,0.99,0.5,1.876,1.135,2.647
			c0.528,0.642,1.163,1.146,1.926,1.487c0.464,0.207,0.944,0.349,1.445,0.42c0.616,0.087,1.228,0.062,1.836-0.076
			c0.459-0.104,0.893-0.267,1.308-0.483c0.378-0.197,0.723-0.442,1.045-0.723c0.356-0.311,0.66-0.667,0.921-1.059
			c0.344-0.516,0.584-1.076,0.724-1.68c0.061-0.268,0.11-0.536,0.119-0.811c0.002-0.038,0.009-0.075,0.037-0.104
			C-153.213,16.551-153.203,16.551-153.192,16.558z"/>
		<path fill-rule="evenodd" clip-rule="evenodd" fill="#FFFFFF" d="M-156.853,4.425c1.192,0,2.386,0.001,3.578-0.002
			c0.07,0,0.084,0.014,0.084,0.084c-0.002,3.845-0.002,7.69-0.002,11.535c-0.012,0.007-0.022,0.006-0.032-0.004
			c-0.033-0.035-0.036-0.08-0.037-0.125c-0.013-0.4-0.096-0.788-0.21-1.169c-0.125-0.415-0.305-0.808-0.531-1.177
			c-0.483-0.791-1.138-1.407-1.94-1.866c-0.24-0.137-0.493-0.253-0.754-0.349c-0.161-0.059-0.164-0.066-0.164-0.239
			c0-2.12,0-4.239,0-6.359c0-0.099,0-0.198-0.006-0.298C-156.865,4.446-156.86,4.435-156.853,4.425z"/>
		<path fill-rule="evenodd" clip-rule="evenodd" fill="#FAFAFA" d="M-156.853,4.425c-0.001,0.009-0.002,0.018-0.002,0.027
			c-0.063,0.042-0.133,0.026-0.2,0.026c-2.092,0.001-4.184,0.001-6.274,0c-0.116,0-0.232,0.006-0.349,0.013
			c0.007-0.022,0.013-0.044,0.019-0.066C-161.39,4.425-159.121,4.425-156.853,4.425z"/>
		<path fill-rule="evenodd" clip-rule="evenodd" fill="#F0EFEF" d="M-174.368,18.201c-0.008,0-0.017,0.001-0.024,0.001
			c0-1.158,0-2.316,0-3.475c0.009,0.001,0.018,0.001,0.025,0.002c0.033,0.041,0.028,0.091,0.028,0.138c0,1.065,0,2.131,0,3.196
			C-174.339,18.111-174.334,18.16-174.368,18.201z"/>
		<path fill-rule="evenodd" clip-rule="evenodd" fill="#F3F3F3" d="M-153.215,16.043c0.008,0,0.015,0,0.022,0
			c0,0.172,0,0.343,0,0.515c-0.008,0-0.016,0-0.023,0c-0.058-0.108-0.021-0.226-0.028-0.339
			C-153.248,16.16-153.258,16.097-153.215,16.043z"/>
		<path fill-rule="evenodd" clip-rule="evenodd" fill="#020202" d="M-153.215,16.043c0,0.172,0,0.343-0.001,0.515
			c-0.033,0.25-0.05,0.501-0.101,0.749c-0.092,0.441-0.231,0.865-0.43,1.271c-0.263,0.54-0.608,1.021-1.033,1.443
			c-0.495,0.492-1.067,0.87-1.71,1.144c-0.377,0.159-0.768,0.272-1.169,0.339c-0.459,0.076-0.922,0.084-1.388,0.036
			c-0.497-0.052-0.975-0.173-1.436-0.359c-0.509-0.206-0.977-0.485-1.397-0.841c-0.428-0.359-0.797-0.772-1.095-1.244
			c-0.328-0.521-0.562-1.082-0.688-1.687c-0.039-0.187-0.07-0.375-0.092-0.564c-0.005-0.048-0.023-0.065-0.069-0.065
			c-0.068,0-0.137-0.001-0.205-0.001c-1.008,0-2.015,0-3.022,0c-0.031,0-0.074-0.018-0.092,0.022
			c-0.014,0.033,0.009,0.064,0.026,0.095c0.354,0.588,0.462,1.226,0.394,1.903c-0.053,0.533-0.24,1.016-0.546,1.448
			c-0.374,0.53-0.868,0.914-1.479,1.142c-0.317,0.119-0.644,0.181-0.985,0.193c-1.012,0.038-1.835-0.351-2.499-1.091
			c-0.413-0.461-0.65-1.014-0.737-1.627c-0.024-0.179-0.034-0.361-0.021-0.542c0.006-0.089-0.026-0.106-0.11-0.105
			c-0.397,0.005-0.795,0.002-1.192,0.002c-0.027,0-0.054,0-0.077-0.017c0-1.157,0.001-2.314,0.001-3.472
			c0.624-0.001,1.248-0.003,1.871,0c0.086,0,0.112-0.019,0.104-0.108c-0.042-0.42-0.079-0.841-0.117-1.262
			c-0.026-0.296-0.054-0.592-0.074-0.888c-0.021-0.313-0.054-0.626-0.083-0.938c-0.007-0.075,0.003-0.11,0.097-0.119
			c0.315-0.03,0.628-0.076,0.942-0.116c0.433-0.055,0.865-0.11,1.298-0.164c0.29-0.036,0.581-0.069,0.871-0.104
			c0.085-0.01,0.169-0.023,0.253-0.031c0.075-0.007,0.102-0.036,0.101-0.117c-0.003-1.388-0.002-2.776-0.002-4.164
			c0-0.223,0.003-0.446-0.001-0.668c-0.002-0.073,0.015-0.104,0.096-0.102c0.291,0.005,0.582,0.006,0.873,0
			c0.089-0.001,0.109,0.026,0.109,0.11c-0.002,1.186-0.001,2.372-0.002,3.557c0,0.438-0.003,0.877-0.008,1.315
			c-0.001,0.068,0.017,0.098,0.092,0.098c0.781-0.002,1.563-0.002,2.344-0.001c0.045,0,0.065-0.005,0.081-0.061
			c0.107-0.388,0.227-0.772,0.336-1.16c0.124-0.437,0.239-0.875,0.364-1.312c0.136-0.475,0.281-0.947,0.417-1.422
			c0.159-0.557,0.311-1.116,0.469-1.673c0.082-0.288,0.17-0.573,0.255-0.859c0.005-0.016,0.004-0.034,0.005-0.051
			c0.03-0.032,0.067-0.039,0.11-0.039c2.203,0.001,4.406,0.002,6.609,0.002c0.034,0,0.068-0.002,0.104-0.003
			c0.028,0.036,0.02,0.078,0.02,0.118c0.001,2.195,0.002,4.391-0.001,6.586c0,0.093,0.025,0.13,0.117,0.165
			c0.489,0.18,0.948,0.418,1.364,0.735c0.285,0.217,0.556,0.449,0.793,0.717c0.323,0.365,0.597,0.762,0.812,1.2
			c0.308,0.628,0.482,1.291,0.524,1.989C-153.224,15.989-153.219,16.017-153.215,16.043z"/>
		<path fill-rule="evenodd" clip-rule="evenodd" fill="#FFFFFF" d="M-158.289,8.379c0,0.843-0.001,1.686,0.002,2.529
			c0,0.079-0.026,0.101-0.101,0.098c-0.41-0.014-0.814,0.028-1.214,0.116c-0.172,0.038-0.35,0.069-0.51,0.145
			c-0.216,0.102-0.438,0.059-0.656,0.042c-0.997-0.077-1.993-0.16-2.99-0.24c-0.246-0.02-0.251-0.02-0.188-0.254
			c0.155-0.578,0.316-1.154,0.474-1.731c0.205-0.756,0.409-1.512,0.615-2.268c0.09-0.33,0.184-0.658,0.271-0.989
			c0.017-0.063,0.051-0.07,0.104-0.07c0.212,0.001,0.425,0,0.637,0c1.151,0,2.304,0,3.455-0.002c0.082,0,0.104,0.025,0.104,0.106
			C-158.29,6.7-158.289,7.54-158.289,8.379z"/>
		<path fill-rule="evenodd" clip-rule="evenodd" fill="#FFFFFF" d="M-156.65,17.378c-0.198,0.319-0.452,0.583-0.787,0.76
			c-0.479,0.251-0.986,0.304-1.514,0.219c-0.365-0.059-0.691-0.205-0.979-0.438c-0.175-0.141-0.313-0.313-0.438-0.497
			c-0.227-0.389-0.336-0.803-0.303-1.256c0.016-0.211,0.044-0.416,0.119-0.613v0.001c0.017-0.107,0.085-0.191,0.123-0.29
			c0.155-0.261,0.337-0.497,0.588-0.675c0.482-0.344,1.021-0.453,1.604-0.391c0.368,0.039,0.702,0.164,1.009,0.368
			c0.08,0.042,0.144,0.104,0.207,0.167c0.214,0.204,0.371,0.448,0.492,0.716c0.119,0.281,0.161,0.573,0.16,0.878
			c-0.002,0.342-0.085,0.659-0.23,0.965C-156.612,17.321-156.625,17.354-156.65,17.378z"/>
		<path fill-rule="evenodd" clip-rule="evenodd" fill="#FFFFFF" d="M-169.737,19.959c-0.838,0.003-1.462-0.42-1.678-1.081
			c-0.179-0.551-0.05-1.048,0.351-1.467c0.322-0.338,0.732-0.487,1.191-0.487c0.756-0.001,1.425,0.475,1.592,1.214
			c0.114,0.502-0.024,0.948-0.378,1.323C-168.985,19.808-169.4,19.947-169.737,19.959z"/>
		<path fill-rule="evenodd" clip-rule="evenodd" fill="#424242" d="M-156.65,17.378c0.08-0.18,0.164-0.357,0.21-0.551
			c0.104-0.44,0.082-0.873-0.066-1.3c-0.009-0.025-0.014-0.053-0.021-0.079c0.095,0.136,0.121,0.295,0.146,0.451
			c0.044,0.269,0.044,0.54-0.002,0.807c-0.039,0.229-0.119,0.447-0.234,0.65C-156.623,17.367-156.639,17.371-156.65,17.378z"/>
		<path fill-rule="evenodd" clip-rule="evenodd" fill="#474747" d="M-160.551,15.552c-0.083,0.28-0.123,0.564-0.111,0.857
			c0.014,0.324,0.103,0.623,0.249,0.909c0.018,0.033,0.03,0.068,0.046,0.103c-0.099-0.088-0.133-0.214-0.179-0.328
			c-0.096-0.238-0.146-0.491-0.149-0.749c-0.004-0.249,0.034-0.496,0.104-0.736C-160.584,15.585-160.578,15.561-160.551,15.552z"/>
		<path fill-rule="evenodd" clip-rule="evenodd" fill="#474747" d="M-160.428,15.263c-0.023,0.104-0.083,0.192-0.123,0.29
			C-160.554,15.438-160.49,15.351-160.428,15.263z"/>
		<path fill-rule="evenodd" clip-rule="evenodd" fill="#464646" d="M-157.02,14.732c-0.069-0.056-0.138-0.111-0.207-0.167
			C-157.132,14.59-157.068,14.651-157.02,14.732z"/>
	</g>
</g>
<g>
	<g>
		<path fill-rule="evenodd" clip-rule="evenodd" fill="none" d="M-120.039,21.89c-3.472,0-6.944-0.001-10.416,0.003
			c-0.123,0-0.141-0.033-0.141-0.146c0.003-6.322,0.003-12.645-0.001-18.968c0-0.122,0.034-0.14,0.146-0.14
			c6.944,0.003,13.889,0.003,20.833,0c0.122,0,0.141,0.034,0.141,0.146c-0.004,6.323-0.004,12.646,0,18.968
			c0,0.122-0.033,0.141-0.146,0.141C-113.095,21.889-116.566,21.89-120.039,21.89z M-125.048,2.694
			c-0.443-0.007-0.876,0.061-1.304,0.164c-0.77,0.185-1.457,0.539-2.058,1.045c-0.607,0.513-1.083,1.138-1.438,1.852
			c-0.349,0.702-0.545,1.452-0.643,2.224c-0.071,0.564-0.068,1.134-0.016,1.704c0.06,0.651,0.182,1.291,0.367,1.913
			c0.206,0.694,0.467,1.37,0.843,1.995c0.285,0.475,0.586,0.938,0.925,1.376c0.298,0.386,0.608,0.758,0.932,1.122
			s0.663,0.712,1.003,1.06c0.314,0.321,0.658,0.614,0.99,0.918c0.55,0.503,1.122,0.978,1.706,1.439
			c0.427,0.337,0.863,0.66,1.3,0.983c0.561,0.416,1.142,0.802,1.721,1.19c0.277,0.187,0.532,0.168,0.813,0.017
			c0.542-0.294,1.069-0.61,1.585-0.945c0.663-0.431,1.31-0.887,1.938-1.368c0.525-0.403,1.032-0.831,1.519-1.278
			c0.576-0.529,1.119-1.094,1.632-1.686c0.115-0.133,0.229-0.268,0.333-0.408c0.252-0.342,0.519-0.672,0.763-1.02
			c0.22-0.314,0.213-0.656-0.058-0.926c-0.199-0.198-0.549-0.228-0.788-0.079c-0.189,0.118-0.287,0.308-0.408,0.479
			c-0.285,0.401-0.596,0.781-0.917,1.154c-0.535,0.621-1.121,1.194-1.725,1.746c-0.507,0.463-1.047,0.89-1.604,1.295
			c-0.732,0.534-1.476,1.049-2.267,1.491c-0.212,0.119-0.437,0.126-0.655,0.013c-0.253-0.132-0.479-0.304-0.707-0.473
			c-0.391-0.289-0.789-0.568-1.173-0.864c-0.413-0.319-0.819-0.648-1.222-0.982c-0.657-0.546-1.3-1.105-1.905-1.706
			c-0.735-0.729-1.428-1.495-2.023-2.348c-0.402-0.575-0.752-1.174-1.01-1.827c-0.226-0.574-0.387-1.168-0.486-1.775
			c-0.099-0.597-0.13-1.199-0.082-1.808c0.052-0.674,0.206-1.316,0.477-1.931c0.306-0.696,0.758-1.28,1.386-1.717
			c0.385-0.269,0.809-0.455,1.264-0.574c0.625-0.164,1.251-0.159,1.872,0c0.516,0.132,0.981,0.378,1.414,0.689
			c0.551,0.397,1.006,0.888,1.418,1.424c0.181,0.235,0.318,0.498,0.494,0.734c0.347,0.465,0.899,0.365,1.142-0.086
			c0.224-0.417,0.458-0.823,0.755-1.19c0.408-0.505,0.881-0.941,1.465-1.227c0.654-0.321,1.339-0.47,2.086-0.382
			c0.721,0.084,1.379,0.318,2.01,0.642c0.479,0.246,0.879,0.599,1.206,1.029c0.409,0.536,0.669,1.143,0.792,1.801
			c0.137,0.727,0.142,1.459,0.023,2.192c-0.039,0.239-0.083,0.477-0.127,0.715c-0.025,0.13-0.032,0.268,0.021,0.398
			c0.106,0.254,0.388,0.445,0.645,0.438c0.257-0.007,0.525-0.228,0.617-0.498c0.096-0.28,0.13-0.573,0.181-0.862
			c0.08-0.459,0.121-0.925,0.1-1.388c-0.017-0.359-0.034-0.721-0.104-1.078c-0.064-0.331-0.153-0.654-0.262-0.97
			c-0.121-0.352-0.28-0.689-0.47-1.011c-0.327-0.555-0.744-1.031-1.245-1.435c-0.48-0.387-1.017-0.673-1.59-0.896
			c-0.699-0.273-1.419-0.454-2.172-0.459c-0.615-0.003-1.211,0.112-1.787,0.333c-0.638,0.244-1.197,0.612-1.7,1.064
			c-0.339,0.305-0.65,0.638-0.911,1.016c-0.119,0.172-0.208,0.172-0.348,0.019c-0.08-0.087-0.144-0.191-0.225-0.277
			c-0.494-0.526-1.024-1.003-1.644-1.387C-123.205,3-124.087,2.725-125.048,2.694z M-110.284,13.25
			c0.138-0.021,0.278-0.03,0.414-0.062c0.281-0.065,0.426-0.374,0.3-0.632c-0.111-0.23-0.316-0.302-0.551-0.302
			c-0.954-0.003-1.907-0.004-2.86,0.001c-0.148,0.001-0.245-0.048-0.314-0.177c-0.105-0.196-0.204-0.396-0.285-0.603
			c-0.147-0.371-0.307-0.736-0.522-1.073c-0.152-0.237-0.485-0.349-0.76-0.284c-0.232,0.056-0.373,0.211-0.505,0.387
			c-0.223,0.295-0.375,0.631-0.543,0.958c-0.028,0.055-0.055,0.123-0.132,0.109c-0.067-0.011-0.053-0.079-0.064-0.127
			c-0.065-0.266-0.082-0.541-0.132-0.809c-0.109-0.584-0.157-1.177-0.263-1.761c-0.053-0.295-0.063-0.595-0.121-0.89
			c-0.068-0.35-0.09-0.71-0.233-1.041c-0.088-0.205-0.238-0.345-0.481-0.36c-0.265-0.017-0.452,0.088-0.563,0.325
			c-0.043,0.093-0.089,0.188-0.104,0.292c-0.08,0.583-0.18,1.165-0.232,1.75c-0.031,0.35-0.078,0.697-0.111,1.046
			c-0.042,0.432-0.074,0.865-0.129,1.296c-0.051,0.399-0.079,0.8-0.118,1.201c-0.014,0.144-0.039,0.287-0.059,0.43
			c-0.007,0.044-0.022,0.083-0.073,0.086c-0.049,0.003-0.076-0.034-0.088-0.075c-0.014-0.049-0.021-0.102-0.022-0.153
			c-0.006-0.125-0.026-0.247-0.061-0.367c-0.081-0.279-0.299-0.451-0.616-0.488c-0.232-0.027-0.522,0.135-0.641,0.361
			c-0.046,0.087-0.083,0.178-0.131,0.264c-0.02,0.036-0.056,0.063-0.104,0.052c-0.043-0.009-0.054-0.043-0.062-0.081
			c-0.042-0.207-0.077-0.417-0.129-0.622c-0.094-0.38-0.159-0.769-0.315-1.132c-0.114-0.266-0.315-0.425-0.605-0.442
			c-0.228-0.014-0.536,0.243-0.643,0.476c-0.182,0.397-0.281,0.822-0.443,1.226c-0.068,0.169-0.167,0.227-0.34,0.225
			c-0.419-0.004-0.84-0.007-1.259,0.008c-0.466,0.017-0.933,0.022-1.397,0c-0.166-0.008-0.307,0.024-0.444,0.1
			c-0.213,0.118-0.276,0.394-0.159,0.607c0.121,0.22,0.33,0.268,0.542,0.27c0.839,0.01,1.679,0.007,2.518,0.001
			c0.159-0.002,0.319-0.016,0.479-0.02c0.235-0.007,0.482-0.015,0.659-0.217c0.095-0.109,0.207-0.204,0.265-0.342
			c0.022-0.053,0.054-0.103,0.125-0.097c0.078,0.006,0.076,0.068,0.092,0.123c0.113,0.402,0.199,0.812,0.325,1.211
			c0.176,0.556,0.91,0.686,1.257,0.306c0.031-0.034,0.065-0.069,0.105-0.089c0.061-0.029,0.117-0.012,0.132,0.06
			c0.028,0.131,0.05,0.263,0.069,0.396c0.032,0.214,0.061,0.43,0.092,0.644c0.063,0.435,0.125,0.869,0.192,1.303
			c0.031,0.199,0.062,0.405,0.23,0.544c0.237,0.194,0.504,0.227,0.785,0.108c0.251-0.104,0.343-0.327,0.374-0.569
			c0.065-0.521,0.121-1.045,0.165-1.569c0.048-0.583,0.12-1.162,0.174-1.744c0.018-0.19,0.069-0.378,0.067-0.567
			c-0.004-0.483,0.132-0.953,0.132-1.435c0-0.055,0.02-0.107,0.086-0.11c0.075-0.003,0.089,0.052,0.099,0.113
			c0.077,0.5,0.149,1.001,0.293,1.486c0.089,0.3,0.253,0.561,0.583,0.628c0.289,0.059,0.495-0.115,0.682-0.317
			c0.264-0.287,0.408-0.645,0.591-0.979c0.082-0.15,0.153-0.306,0.237-0.454c0.06-0.105,0.138-0.101,0.196,0.003
			c0.03,0.054,0.055,0.112,0.078,0.169c0.121,0.303,0.25,0.604,0.441,0.87c0.215,0.299,0.485,0.518,0.885,0.52
			C-112.253,13.22-111.269,13.191-110.284,13.25z"/>
		<path fill-rule="evenodd" clip-rule="evenodd" d="M-125.048,2.694c0.961,0.03,1.843,0.305,2.663,0.813
			c0.619,0.384,1.149,0.861,1.644,1.387c0.081,0.086,0.145,0.19,0.225,0.277c0.14,0.153,0.229,0.153,0.348-0.019
			c0.261-0.378,0.572-0.711,0.911-1.016c0.503-0.453,1.063-0.82,1.7-1.064c0.576-0.221,1.172-0.336,1.787-0.333
			c0.753,0.005,1.473,0.186,2.172,0.459c0.573,0.224,1.109,0.51,1.59,0.896c0.501,0.404,0.918,0.88,1.245,1.435
			c0.189,0.322,0.349,0.659,0.47,1.011c0.108,0.316,0.197,0.64,0.262,0.97c0.07,0.357,0.088,0.719,0.104,1.078
			c0.021,0.463-0.02,0.929-0.1,1.388c-0.051,0.289-0.085,0.582-0.181,0.862c-0.092,0.27-0.36,0.491-0.617,0.498
			c-0.257,0.008-0.538-0.183-0.645-0.438c-0.054-0.13-0.047-0.268-0.021-0.398c0.044-0.238,0.088-0.476,0.127-0.715
			c0.118-0.733,0.113-1.466-0.023-2.192c-0.123-0.658-0.383-1.265-0.792-1.801c-0.327-0.43-0.728-0.784-1.206-1.029
			c-0.631-0.324-1.289-0.558-2.01-0.642c-0.747-0.087-1.432,0.062-2.086,0.382c-0.584,0.286-1.057,0.722-1.465,1.227
			c-0.297,0.368-0.531,0.774-0.755,1.19c-0.242,0.452-0.795,0.551-1.142,0.086c-0.176-0.236-0.313-0.499-0.494-0.734
			c-0.412-0.537-0.867-1.027-1.418-1.424c-0.433-0.311-0.898-0.557-1.414-0.689c-0.621-0.159-1.247-0.164-1.872,0
			c-0.455,0.12-0.879,0.306-1.264,0.574c-0.628,0.437-1.08,1.021-1.386,1.717c-0.271,0.615-0.425,1.257-0.477,1.931
			c-0.048,0.609-0.017,1.211,0.082,1.808c0.1,0.606,0.261,1.201,0.486,1.775c0.258,0.653,0.607,1.252,1.01,1.827
			c0.596,0.853,1.288,1.618,2.023,2.348c0.605,0.601,1.248,1.16,1.905,1.706c0.402,0.334,0.809,0.663,1.222,0.982
			c0.384,0.296,0.782,0.575,1.173,0.864c0.229,0.169,0.454,0.341,0.707,0.473c0.219,0.113,0.443,0.106,0.655-0.013
			c0.791-0.442,1.534-0.957,2.267-1.491c0.557-0.405,1.097-0.832,1.604-1.295c0.604-0.552,1.189-1.125,1.725-1.746
			c0.321-0.373,0.632-0.753,0.917-1.154c0.121-0.172,0.219-0.361,0.408-0.479c0.239-0.148,0.589-0.119,0.788,0.079
			c0.271,0.27,0.277,0.611,0.058,0.926c-0.244,0.348-0.511,0.678-0.763,1.02c-0.104,0.141-0.218,0.275-0.333,0.408
			c-0.513,0.592-1.056,1.156-1.632,1.686c-0.486,0.447-0.993,0.875-1.519,1.278c-0.628,0.481-1.274,0.938-1.938,1.368
			c-0.516,0.335-1.043,0.651-1.585,0.945c-0.28,0.151-0.535,0.17-0.813-0.017c-0.579-0.389-1.16-0.774-1.721-1.19
			c-0.437-0.323-0.873-0.646-1.3-0.983c-0.584-0.462-1.156-0.937-1.706-1.439c-0.332-0.304-0.676-0.597-0.99-0.918
			c-0.34-0.348-0.68-0.695-1.003-1.06s-0.634-0.736-0.932-1.122c-0.339-0.438-0.64-0.901-0.925-1.376
			c-0.376-0.625-0.637-1.301-0.843-1.995c-0.186-0.623-0.308-1.262-0.367-1.913c-0.053-0.57-0.056-1.14,0.016-1.704
			c0.098-0.771,0.294-1.521,0.643-2.224c0.354-0.714,0.83-1.339,1.438-1.852c0.601-0.507,1.288-0.86,2.058-1.045
			C-125.924,2.755-125.491,2.687-125.048,2.694z"/>
		<path fill-rule="evenodd" clip-rule="evenodd" d="M-110.284,13.25c-0.984-0.059-1.969-0.03-2.952-0.037
			c-0.399-0.002-0.67-0.221-0.885-0.52c-0.191-0.266-0.32-0.567-0.441-0.87c-0.023-0.058-0.048-0.115-0.078-0.169
			c-0.059-0.104-0.137-0.108-0.196-0.003c-0.084,0.148-0.155,0.304-0.237,0.454c-0.183,0.334-0.327,0.692-0.591,0.979
			c-0.187,0.202-0.393,0.376-0.682,0.317c-0.33-0.067-0.494-0.328-0.583-0.628c-0.144-0.485-0.216-0.987-0.293-1.486
			c-0.01-0.061-0.023-0.116-0.099-0.113c-0.066,0.003-0.086,0.055-0.086,0.11c0,0.482-0.136,0.952-0.132,1.435
			c0.002,0.189-0.05,0.377-0.067,0.567c-0.054,0.582-0.126,1.161-0.174,1.744c-0.044,0.524-0.1,1.048-0.165,1.569
			c-0.031,0.242-0.123,0.465-0.374,0.569c-0.281,0.118-0.548,0.086-0.785-0.108c-0.169-0.139-0.199-0.345-0.23-0.544
			c-0.067-0.434-0.129-0.868-0.192-1.303c-0.031-0.214-0.06-0.43-0.092-0.644c-0.02-0.133-0.041-0.265-0.069-0.396
			c-0.015-0.071-0.071-0.089-0.132-0.06c-0.04,0.02-0.074,0.055-0.105,0.089c-0.347,0.38-1.081,0.25-1.257-0.306
			c-0.126-0.399-0.212-0.809-0.325-1.211c-0.016-0.055-0.014-0.117-0.092-0.123c-0.071-0.005-0.103,0.044-0.125,0.097
			c-0.058,0.138-0.17,0.233-0.265,0.342c-0.177,0.202-0.424,0.21-0.659,0.217c-0.159,0.004-0.319,0.018-0.479,0.02
			c-0.839,0.006-1.679,0.009-2.518-0.001c-0.212-0.002-0.421-0.05-0.542-0.27c-0.117-0.213-0.054-0.489,0.159-0.607
			c0.138-0.076,0.278-0.108,0.444-0.1c0.465,0.022,0.932,0.017,1.397,0c0.419-0.015,0.84-0.013,1.259-0.008
			c0.173,0.002,0.271-0.056,0.34-0.225c0.162-0.403,0.262-0.829,0.443-1.226c0.106-0.232,0.415-0.489,0.643-0.476
			c0.29,0.017,0.491,0.176,0.605,0.442c0.156,0.363,0.222,0.751,0.315,1.132c0.052,0.205,0.087,0.415,0.129,0.622
			c0.008,0.038,0.019,0.071,0.062,0.081c0.048,0.01,0.084-0.016,0.104-0.052c0.048-0.086,0.085-0.177,0.131-0.264
			c0.118-0.226,0.408-0.388,0.641-0.361c0.317,0.037,0.535,0.209,0.616,0.488c0.034,0.12,0.055,0.242,0.061,0.367
			c0.002,0.051,0.009,0.104,0.022,0.153c0.012,0.041,0.039,0.078,0.088,0.075c0.051-0.003,0.066-0.042,0.073-0.086
			c0.02-0.144,0.045-0.287,0.059-0.43c0.039-0.4,0.067-0.801,0.118-1.201c0.055-0.431,0.087-0.864,0.129-1.296
			c0.033-0.349,0.08-0.697,0.111-1.046c0.053-0.585,0.152-1.167,0.232-1.75c0.015-0.104,0.061-0.199,0.104-0.292
			c0.111-0.237,0.299-0.342,0.563-0.325c0.243,0.015,0.394,0.155,0.481,0.36c0.144,0.331,0.165,0.691,0.233,1.041
			c0.058,0.295,0.068,0.595,0.121,0.89c0.105,0.584,0.153,1.177,0.263,1.761c0.05,0.268,0.066,0.542,0.132,0.809
			c0.012,0.048-0.003,0.116,0.064,0.127c0.077,0.014,0.104-0.054,0.132-0.109c0.168-0.327,0.32-0.662,0.543-0.958
			c0.132-0.176,0.272-0.331,0.505-0.387c0.274-0.065,0.607,0.047,0.76,0.284c0.216,0.337,0.375,0.702,0.522,1.073
			c0.081,0.207,0.18,0.406,0.285,0.603c0.069,0.129,0.166,0.178,0.314,0.177c0.953-0.005,1.906-0.004,2.86-0.001
			c0.234,0,0.439,0.072,0.551,0.302c0.126,0.259-0.019,0.567-0.3,0.632C-110.006,13.22-110.146,13.229-110.284,13.25z"/>
	</g>
</g>
<g>
	<g>
		<path fill-rule="evenodd" clip-rule="evenodd" fill="none" d="M-31.974,20.22c-3.715,0-7.429-0.001-11.144,0.003
			c-0.101,0-0.123-0.026-0.123-0.142c0.003-5.266,0.003-10.532,0-15.797c0-0.115,0.022-0.141,0.123-0.141
			c7.429,0.003,14.858,0.003,22.287,0c0.101,0,0.123,0.026,0.123,0.141c-0.003,5.266-0.003,10.532,0,15.797
			c0,0.115-0.022,0.142-0.123,0.142C-24.545,20.219-28.259,20.22-31.974,20.22z M-42.795,14.813c0.07-0.086,0.067-0.163,0.071-0.237
			c0.004-0.07,0.021-0.142,0.086-0.157c0.075-0.02,0.096,0.061,0.114,0.121c0.036,0.122,0.079,0.239,0.139,0.349
			c0.373,0.682,0.876,1.195,1.527,1.505c0.659,0.314,1.325,0.409,1.994,0.024c0.111-0.063,0.162-0.009,0.149,0.144
			c-0.035,0.398-0.193,0.696-0.53,0.847c-0.123,0.054-0.178,0.135-0.143,0.294c0.094,0.421,0.178,0.845,0.265,1.267
			c0.072,0.349,0.145,0.696,0.217,1.044c0.023,0.116,0.067,0.189,0.19,0.181c0.16-0.012,0.322-0.002,0.482-0.004
			c0.161-0.001,0.174-0.02,0.137-0.195c-0.098-0.462-0.194-0.924-0.294-1.386c-0.063-0.287-0.007-0.469,0.206-0.636
			c0.117-0.093,0.241-0.177,0.343-0.293c0.7-0.801,1.073-1.769,1.122-2.899c0.004-0.088,0.016-0.163,0.097-0.197
			c0.105-0.044,0.195-0.122,0.291-0.187c0.519-0.35,0.989-0.772,1.411-1.262c0.419-0.486,0.761-1.055,1.211-1.511
			c0.092-0.093,0.151-0.106,0.255-0.044c0.268,0.159,0.547,0.285,0.855,0.266c0.521-0.033,1.031,0.088,1.545,0.15
			c0.403,0.049,0.806,0.11,1.208,0.171c0.076,0.011,0.117-0.014,0.145-0.094c0.059-0.171,0.119-0.342,0.186-0.51
			c0.038-0.098,0.017-0.141-0.076-0.151c-0.258-0.028-0.515-0.069-0.772-0.089c-0.57-0.046-1.072-0.251-1.457-0.762
			c-0.073-0.097-0.085-0.166,0.003-0.257c0.109-0.113,0.213-0.234,0.313-0.358c0.057-0.071,0.108-0.085,0.188-0.046
			c0.245,0.122,0.504,0.144,0.763,0.091c0.496-0.101,0.84-0.431,1.033-0.96c0.15-0.411,0.392-0.727,0.726-0.954
			c0.062-0.042,0.12-0.089,0.177-0.139c0.09-0.079,0.18-0.143,0.302-0.143c0.102,0,0.15-0.075,0.109-0.187
			c-0.149-0.411-0.244-0.844-0.405-1.25c-0.025-0.064-0.052-0.125-0.122-0.119c-0.071,0.006-0.091,0.07-0.103,0.14
			c-0.014,0.084-0.044,0.156-0.12,0.188c-0.285,0.122-0.574,0.14-0.866,0.034c-0.337-0.122-0.524-0.425-0.695-0.748
			c-0.035-0.064-0.023-0.124,0.002-0.188c0.073-0.182,0.127-0.371,0.168-0.565c0.057-0.269,0.028-0.528-0.077-0.775
			c-0.054-0.124-0.093-0.123-0.174-0.025c-0.146,0.174-0.294,0.344-0.439,0.516c-0.143,0.168-0.293,0.289-0.501,0.133
			c-0.018-0.013-0.043-0.014-0.064-0.022c-0.722-0.269-1.448-0.177-2.172-0.016c-0.614,0.137-1.207,0.365-1.783,0.647
			c-0.437,0.214-0.858,0.457-1.244,0.777c-0.467,0.388-0.896,0.829-1.333,1.257c-0.41,0.402-0.803,0.828-1.22,1.22
			c-0.564,0.532-1.217,0.935-1.729,1.545c-0.334,0.398-0.709,0.751-1.023,1.169c-0.471,0.626-0.676,1.357-0.598,2.187
			c0.013,0.132,0.023,0.264,0.051,0.394c0.013,0.058,0.009,0.112-0.038,0.151c-0.05,0.043-0.092,0.02-0.132-0.02
			c-0.042-0.04-0.092-0.065-0.145-0.076c-0.096-0.021-0.184-0.003-0.222,0.114c-0.028,0.09,0.051,0.207,0.151,0.235
			c0.025,0.007,0.054,0.011,0.079,0.007c0.117-0.016,0.168,0.04,0.155,0.175C-42.812,14.721-42.803,14.751-42.795,14.813z
			 M-31.484,10.57c0.004,0.069,0.042,0.093,0.071,0.12c0.259,0.227,0.558,0.342,0.875,0.389c0.358,0.053,0.719,0.085,1.078,0.13
			c0.157,0.02,0.228,0.152,0.169,0.317c-0.058,0.161-0.117,0.321-0.182,0.479c-0.158,0.388-0.161,0.401-0.539,0.358
			c-0.519-0.059-1.036-0.144-1.554-0.214c-0.283-0.038-0.564-0.111-0.852-0.089c-0.359,0.027-0.704-0.036-1.029-0.217
			c-0.084-0.046-0.148-0.025-0.217,0.047c-0.217,0.229-0.427,0.462-0.599,0.739c-0.093,0.149-0.202,0.287-0.313,0.419
			c-0.41,0.494-0.854,0.943-1.353,1.319c-0.081,0.061-0.113,0.129-0.086,0.243c0.07,0.299,0.172,0.582,0.31,0.846
			c0.308,0.586,0.703,1.056,1.305,1.24c0.154,0.047,0.169,0.095,0.085,0.259c-0.106,0.208-0.245,0.377-0.452,0.456
			c-0.111,0.042-0.148,0.13-0.137,0.261c0.012,0.129,0.054,0.248,0.079,0.372c0.134,0.651,0.273,1.302,0.403,1.954
			c0.029,0.147,0.09,0.205,0.222,0.195c0.138-0.011,0.276-0.003,0.415-0.003c0.208-0.001,0.213-0.008,0.163-0.244
			c-0.095-0.446-0.191-0.893-0.286-1.34c-0.056-0.261-0.004-0.485,0.177-0.609c0.42-0.286,0.714-0.704,0.965-1.167
			c0.07-0.13,0.131-0.15,0.247-0.084c0.707,0.4,1.466,0.594,2.246,0.645c1.004,0.065,1.988-0.071,2.924-0.53
			c0.229-0.112,0.229-0.105,0.328,0.149c0.068,0.178,0.164,0.345,0.211,0.528c0.212,0.834,0.412,1.671,0.614,2.508
			c0.022,0.093,0.065,0.142,0.149,0.143c0.156,0,0.313,0.001,0.469,0c0.092-0.001,0.129-0.041,0.097-0.155
			c-0.094-0.33-0.186-0.661-0.269-0.995c-0.129-0.515-0.134-1.026,0.033-1.534c0.097-0.296,0.305-0.517,0.408-0.807
			c0.095-0.269,0.252-0.442,0.504-0.509c0.076-0.021,0.152-0.066,0.216-0.12c0.109-0.092,0.183-0.056,0.276,0.041
			c0.451,0.465,1.186,0.496,1.675,0.092c0.18-0.148,0.315-0.347,0.489-0.5c0.29-0.255,0.638-0.331,0.981-0.421
			c0.083-0.021,0.163-0.037,0.249,0.003c0.109,0.052,0.174,0.005,0.176-0.136c0.006-0.444,0.003-0.889,0.001-1.334
			c-0.001-0.067-0.021-0.136-0.091-0.151c-0.062-0.014-0.101,0.027-0.128,0.087c-0.034,0.073-0.087,0.11-0.16,0.119
			c-0.617,0.073-1.2-0.482-1.251-1.193c-0.009-0.123,0.011-0.223,0.095-0.316c0.1-0.109,0.188-0.235,0.261-0.369
			c0.133-0.245,0.234-0.504,0.185-0.809c-0.022-0.132-0.067-0.146-0.164-0.08c-0.235,0.16-0.483,0.285-0.742,0.388
			c-0.12,0.047-0.219,0.05-0.322-0.051c-0.073-0.072-0.164-0.125-0.251-0.174c-0.817-0.467-1.685-0.693-2.596-0.71
			c-0.34-0.006-0.68,0.002-1.019-0.01c-0.33-0.013-0.66-0.001-0.988,0.028c-0.36,0.032-0.713,0.129-1.072,0.18
			c-0.609,0.086-1.211,0.037-1.813-0.061C-31.025,10.654-31.253,10.611-31.484,10.57z M-35.094,20.188c0.099,0,0.196,0.001,0.295,0
			c0.087,0,0.12-0.042,0.097-0.146c-0.077-0.351-0.155-0.702-0.224-1.057c-0.037-0.193-0.128-0.383-0.099-0.582
			c0.035-0.238-0.021-0.454-0.065-0.677c-0.048-0.231,0.034-0.418,0.225-0.507c0.097-0.045,0.187-0.099,0.263-0.18
			c0.094-0.099,0.088-0.138-0.027-0.19c-0.213-0.099-0.413-0.219-0.59-0.388c-0.03-0.028-0.061-0.073-0.104-0.047
			c-0.042,0.025-0.029,0.082-0.028,0.126c0.008,0.428-0.188,0.696-0.514,0.862c-0.14,0.07-0.176,0.157-0.138,0.329
			c0.067,0.312,0.132,0.624,0.197,0.936c0.08,0.377,0.15,0.757,0.241,1.13C-35.468,20.191-35.459,20.189-35.094,20.188z
			 M-39.577,20.189L-39.577,20.189c0.089,0,0.179-0.002,0.268,0c0.104,0.003,0.135-0.049,0.109-0.162
			c-0.05-0.223-0.1-0.445-0.14-0.671c-0.055-0.31-0.174-0.608-0.164-0.927c0.007-0.219-0.018-0.424-0.063-0.633
			c-0.066-0.313,0-0.467,0.253-0.602c0.146-0.078,0.271-0.178,0.336-0.354c0.011-0.028,0.03-0.059,0.013-0.086
			c-0.023-0.038-0.058-0.019-0.085-0.005c-0.214,0.107-0.44,0.129-0.669,0.123c-0.106-0.003-0.171,0.045-0.229,0.146
			c-0.083,0.145-0.181,0.278-0.328,0.349c-0.243,0.115-0.258,0.153-0.192,0.454c0.015,0.063,0.014,0.132,0.03,0.195
			c0.151,0.582,0.251,1.179,0.374,1.769c0.085,0.404,0.082,0.405,0.447,0.404C-39.604,20.189-39.591,20.189-39.577,20.189z
			 M-26.846,20.189c0.115,0,0.195,0.001,0.275,0c0.084-0.002,0.127-0.03,0.091-0.142c-0.058-0.177-0.107-0.357-0.156-0.538
			c-0.093-0.346-0.202-0.688-0.214-1.055c-0.016-0.47-0.141-0.9-0.331-1.312c-0.037-0.079-0.082-0.089-0.142-0.052
			c-0.127,0.079-0.263,0.135-0.4,0.171c-0.153,0.039-0.146,0.133-0.112,0.268c0.191,0.755,0.378,1.512,0.567,2.268
			C-27.147,20.277-27.19,20.179-26.846,20.189z M-22.425,11.015c0.001-0.167-0.047-0.242-0.122-0.201
			c-0.155,0.086-0.308,0.18-0.461,0.272c-0.042,0.025-0.063,0.054-0.018,0.104c0.108,0.122,0.518,0.052,0.587-0.104
			C-22.427,11.061-22.427,11.028-22.425,11.015z M-31.033,4.471c-0.002-0.099-0.037-0.157-0.071-0.216
			c-0.037-0.065-0.074-0.06-0.115-0.004c-0.095,0.128-0.189,0.254-0.284,0.382c-0.028,0.038-0.033,0.077,0.015,0.095
			c0.069,0.025,0.139,0.095,0.213,0.028C-31.182,4.668-31.075,4.591-31.033,4.471z"/>
		<path fill-rule="evenodd" clip-rule="evenodd" d="M-42.795,14.813c-0.008-0.063-0.017-0.093-0.014-0.121
			c0.013-0.135-0.038-0.19-0.155-0.175c-0.025,0.004-0.054,0-0.079-0.007c-0.101-0.028-0.18-0.146-0.151-0.235
			c0.038-0.117,0.126-0.135,0.222-0.114c0.053,0.011,0.103,0.036,0.145,0.076c0.04,0.039,0.082,0.063,0.132,0.02
			c0.047-0.039,0.051-0.094,0.038-0.151c-0.027-0.13-0.038-0.262-0.051-0.394c-0.078-0.829,0.127-1.561,0.598-2.187
			c0.314-0.418,0.689-0.771,1.023-1.169c0.513-0.61,1.165-1.013,1.729-1.545c0.417-0.393,0.81-0.818,1.22-1.22
			c0.438-0.428,0.866-0.87,1.333-1.257c0.386-0.32,0.808-0.563,1.244-0.777c0.576-0.282,1.169-0.51,1.783-0.647
			c0.724-0.161,1.45-0.252,2.172,0.016c0.021,0.008,0.047,0.009,0.064,0.022c0.208,0.156,0.358,0.036,0.501-0.133
			c0.146-0.172,0.294-0.342,0.439-0.516c0.081-0.098,0.12-0.099,0.174,0.025c0.105,0.247,0.134,0.506,0.077,0.775
			c-0.041,0.194-0.095,0.384-0.168,0.565c-0.025,0.064-0.037,0.124-0.002,0.188c0.171,0.323,0.358,0.626,0.695,0.748
			c0.292,0.106,0.581,0.088,0.866-0.034c0.076-0.032,0.106-0.104,0.12-0.188c0.012-0.069,0.031-0.133,0.103-0.14
			c0.07-0.006,0.097,0.054,0.122,0.119c0.161,0.406,0.256,0.839,0.405,1.25c0.041,0.112-0.008,0.187-0.109,0.187
			c-0.122,0-0.212,0.064-0.302,0.143c-0.057,0.05-0.115,0.097-0.177,0.139c-0.334,0.227-0.575,0.543-0.726,0.954
			c-0.193,0.53-0.537,0.859-1.033,0.96c-0.259,0.053-0.518,0.03-0.763-0.091c-0.079-0.039-0.131-0.025-0.188,0.046
			c-0.1,0.124-0.203,0.246-0.313,0.358c-0.088,0.091-0.076,0.16-0.003,0.257c0.385,0.511,0.887,0.716,1.457,0.762
			c0.258,0.021,0.515,0.061,0.772,0.089c0.093,0.01,0.114,0.053,0.076,0.151c-0.066,0.168-0.127,0.338-0.186,0.51
			c-0.027,0.08-0.068,0.105-0.145,0.094c-0.402-0.061-0.805-0.122-1.208-0.171c-0.514-0.062-1.023-0.183-1.545-0.15
			c-0.309,0.02-0.588-0.106-0.855-0.266c-0.104-0.062-0.163-0.049-0.255,0.044c-0.45,0.456-0.792,1.024-1.211,1.511
			c-0.422,0.489-0.893,0.912-1.411,1.262c-0.096,0.064-0.186,0.143-0.291,0.187c-0.081,0.034-0.093,0.109-0.097,0.197
			c-0.049,1.131-0.422,2.099-1.122,2.899c-0.102,0.116-0.226,0.2-0.343,0.293c-0.213,0.167-0.269,0.349-0.206,0.636
			c0.1,0.462,0.196,0.924,0.294,1.386c0.037,0.176,0.024,0.194-0.137,0.195c-0.16,0.002-0.322-0.008-0.482,0.004
			c-0.123,0.009-0.167-0.064-0.19-0.181c-0.072-0.348-0.145-0.695-0.217-1.044c-0.087-0.422-0.171-0.846-0.265-1.267
			c-0.035-0.159,0.02-0.24,0.143-0.294c0.337-0.15,0.495-0.448,0.53-0.847c0.013-0.152-0.038-0.207-0.149-0.144
			c-0.669,0.385-1.335,0.29-1.994-0.024c-0.651-0.31-1.154-0.823-1.527-1.505c-0.06-0.109-0.103-0.227-0.139-0.349
			c-0.019-0.061-0.039-0.141-0.114-0.121c-0.065,0.016-0.082,0.087-0.086,0.157C-42.728,14.65-42.725,14.728-42.795,14.813z"/>
		<path fill-rule="evenodd" clip-rule="evenodd" d="M-31.484,10.57c0.231,0.041,0.459,0.084,0.688,0.121
			c0.603,0.098,1.204,0.146,1.813,0.061c0.359-0.051,0.712-0.147,1.072-0.18c0.328-0.029,0.658-0.041,0.988-0.028
			c0.339,0.012,0.679,0.004,1.019,0.01c0.911,0.017,1.778,0.243,2.596,0.71c0.087,0.05,0.178,0.103,0.251,0.174
			c0.104,0.101,0.202,0.098,0.322,0.051c0.259-0.103,0.507-0.228,0.742-0.388c0.097-0.066,0.142-0.052,0.164,0.08
			c0.05,0.305-0.052,0.564-0.185,0.809c-0.072,0.134-0.161,0.26-0.261,0.369c-0.084,0.093-0.104,0.193-0.095,0.316
			c0.051,0.71,0.634,1.266,1.251,1.193c0.073-0.009,0.126-0.046,0.16-0.119c0.027-0.06,0.066-0.101,0.128-0.087
			c0.069,0.016,0.09,0.084,0.091,0.151c0.002,0.445,0.005,0.89-0.001,1.334c-0.002,0.141-0.066,0.188-0.176,0.136
			c-0.086-0.04-0.166-0.024-0.249-0.003c-0.344,0.09-0.691,0.166-0.981,0.421c-0.174,0.153-0.31,0.352-0.489,0.5
			c-0.489,0.404-1.224,0.373-1.675-0.092c-0.094-0.097-0.167-0.133-0.276-0.041c-0.063,0.054-0.14,0.1-0.216,0.12
			c-0.252,0.066-0.409,0.24-0.504,0.509c-0.104,0.29-0.312,0.511-0.408,0.807c-0.167,0.508-0.162,1.02-0.033,1.534
			c0.083,0.334,0.175,0.665,0.269,0.995c0.032,0.114-0.005,0.154-0.097,0.155c-0.156,0.001-0.313,0-0.469,0
			c-0.084-0.001-0.127-0.05-0.149-0.143c-0.202-0.837-0.402-1.674-0.614-2.508c-0.047-0.184-0.143-0.351-0.211-0.528
			c-0.099-0.255-0.099-0.262-0.328-0.149c-0.936,0.459-1.92,0.596-2.924,0.53c-0.78-0.051-1.539-0.244-2.246-0.645
			c-0.116-0.066-0.177-0.046-0.247,0.084c-0.251,0.463-0.545,0.881-0.965,1.167c-0.181,0.124-0.232,0.349-0.177,0.609
			c0.095,0.447,0.191,0.894,0.286,1.34c0.05,0.236,0.045,0.243-0.163,0.244c-0.139,0-0.277-0.008-0.415,0.003
			c-0.132,0.01-0.192-0.048-0.222-0.195c-0.13-0.652-0.27-1.303-0.403-1.954c-0.025-0.124-0.067-0.243-0.079-0.372
			c-0.012-0.131,0.025-0.219,0.137-0.261c0.207-0.079,0.346-0.248,0.452-0.456c0.084-0.164,0.069-0.212-0.085-0.259
			c-0.602-0.185-0.997-0.654-1.305-1.24c-0.138-0.264-0.239-0.547-0.31-0.846c-0.027-0.114,0.005-0.183,0.086-0.243
			c0.498-0.376,0.942-0.825,1.353-1.319c0.11-0.133,0.22-0.27,0.313-0.419c0.172-0.277,0.382-0.511,0.599-0.739
			c0.068-0.072,0.133-0.093,0.217-0.047c0.325,0.181,0.67,0.244,1.029,0.217c0.287-0.022,0.568,0.051,0.852,0.089
			c0.518,0.07,1.035,0.155,1.554,0.214c0.378,0.043,0.381,0.03,0.539-0.358c0.064-0.157,0.124-0.317,0.182-0.479
			c0.059-0.166-0.012-0.298-0.169-0.317c-0.359-0.044-0.72-0.077-1.078-0.13c-0.317-0.047-0.616-0.162-0.875-0.389
			C-31.442,10.663-31.48,10.639-31.484,10.57z"/>
		<path fill-rule="evenodd" clip-rule="evenodd" d="M-35.094,20.188c-0.365,0.002-0.374,0.004-0.471-0.39
			c-0.091-0.373-0.161-0.753-0.241-1.13c-0.065-0.312-0.13-0.624-0.197-0.936c-0.038-0.172-0.002-0.259,0.138-0.329
			c0.325-0.166,0.521-0.435,0.514-0.862c-0.001-0.044-0.014-0.101,0.028-0.126c0.043-0.026,0.073,0.019,0.104,0.047
			c0.177,0.169,0.377,0.289,0.59,0.388c0.115,0.053,0.121,0.092,0.027,0.19c-0.076,0.081-0.166,0.135-0.263,0.18
			c-0.19,0.089-0.272,0.275-0.225,0.507c0.045,0.223,0.101,0.438,0.065,0.677c-0.029,0.199,0.062,0.389,0.099,0.582
			c0.068,0.354,0.146,0.706,0.224,1.057c0.023,0.104-0.01,0.146-0.097,0.146C-34.897,20.188-34.995,20.188-35.094,20.188z"/>
		<path fill-rule="evenodd" clip-rule="evenodd" d="M-39.577,20.189c-0.014,0-0.026,0-0.04,0c-0.365,0.001-0.362,0-0.447-0.404
			c-0.123-0.59-0.223-1.187-0.374-1.769c-0.017-0.063-0.016-0.132-0.03-0.195c-0.065-0.301-0.051-0.339,0.192-0.454
			c0.147-0.07,0.245-0.204,0.328-0.349c0.059-0.101,0.123-0.148,0.229-0.146c0.229,0.006,0.455-0.016,0.669-0.123
			c0.027-0.014,0.062-0.033,0.085,0.005c0.018,0.027-0.002,0.058-0.013,0.086c-0.064,0.177-0.189,0.276-0.336,0.354
			c-0.253,0.135-0.319,0.289-0.253,0.602c0.045,0.209,0.069,0.414,0.063,0.633c-0.01,0.318,0.109,0.617,0.164,0.927
			c0.04,0.226,0.09,0.448,0.14,0.671c0.025,0.113-0.005,0.165-0.109,0.162C-39.398,20.188-39.488,20.189-39.577,20.189
			L-39.577,20.189z"/>
		<path fill-rule="evenodd" clip-rule="evenodd" d="M-26.846,20.189c-0.345-0.011-0.302,0.088-0.422-0.392
			c-0.189-0.756-0.376-1.513-0.567-2.268c-0.034-0.135-0.041-0.229,0.112-0.268c0.138-0.036,0.273-0.092,0.4-0.171
			c0.06-0.037,0.104-0.027,0.142,0.052c0.19,0.411,0.315,0.842,0.331,1.312c0.012,0.367,0.121,0.709,0.214,1.055
			c0.049,0.181,0.099,0.361,0.156,0.538c0.036,0.111-0.007,0.14-0.091,0.142C-26.65,20.19-26.73,20.189-26.846,20.189z"/>
		<path fill-rule="evenodd" clip-rule="evenodd" d="M-22.425,11.015c-0.002,0.013-0.002,0.045-0.014,0.071
			c-0.069,0.156-0.479,0.227-0.587,0.104c-0.045-0.05-0.024-0.079,0.018-0.104c0.153-0.092,0.306-0.187,0.461-0.272
			C-22.472,10.773-22.424,10.849-22.425,11.015z"/>
		<path fill-rule="evenodd" clip-rule="evenodd" d="M-31.033,4.471c-0.042,0.12-0.148,0.197-0.243,0.284
			c-0.074,0.067-0.144-0.003-0.213-0.028c-0.048-0.018-0.043-0.057-0.015-0.095c0.095-0.127,0.189-0.254,0.284-0.382
			c0.041-0.056,0.078-0.061,0.115,0.004C-31.07,4.314-31.035,4.373-31.033,4.471z"/>
	</g>
</g>
<g>
	<g>
		<path fill-rule="evenodd" clip-rule="evenodd" fill="none" d="M22.833,6.461c0,5.067,0,10.134,0.003,15.201
			c0,0.108-0.024,0.133-0.133,0.133c-6.437-0.003-12.872-0.003-19.309-0.003c0.101-0.064,0.165-0.158,0.224-0.26
			c0.346-0.602,0.695-1.201,1.037-1.805c0.068-0.12,0.124-0.139,0.246-0.066c0.459,0.274,0.925,0.538,1.389,0.805
			c0.255,0.146,0.404,0.105,0.552-0.145c0.071-0.12,0.141-0.241,0.209-0.363c0.159-0.283,0.115-0.43-0.165-0.59
			c-0.465-0.266-0.927-0.536-1.393-0.799c-0.097-0.055-0.111-0.1-0.053-0.199c0.49-0.841,0.978-1.684,1.46-2.529
			c0.057-0.099,0.113-0.104,0.209-0.071c0.534,0.179,1.085,0.258,1.647,0.269c0.119,0.002,0.17-0.02,0.121-0.155
			c-0.193-0.546-0.269-1.113-0.292-1.688c-0.005-0.112-0.045-0.151-0.151-0.161c-0.353-0.033-0.689-0.125-1.018-0.261
			c-1.438-0.597-2.335-2.178-2.096-3.712c0.143-0.916,0.575-1.67,1.299-2.249c0.637-0.508,1.374-0.766,2.185-0.756
			c1.086,0.013,1.997,0.441,2.688,1.285c0.657,0.802,0.909,1.728,0.754,2.757c-0.121,0.797-0.495,1.461-1.071,2.018
			c-0.058,0.056-0.1,0.115-0.118,0.193c-0.162,0.681-0.119,1.347,0.127,2.003c0.044,0.118,0.094,0.133,0.2,0.074
			c0.421-0.23,0.813-0.5,1.157-0.835c1.278-1.242,1.867-2.756,1.7-4.531c-0.139-1.475-0.786-2.713-1.932-3.663
			c-1.259-1.042-2.713-1.452-4.331-1.216C6.613,5.342,5.47,5.973,4.588,7.039c-1.053,1.272-1.461,2.74-1.211,4.373
			c0.195,1.274,0.786,2.347,1.741,3.216c0.073,0.066,0.088,0.115,0.035,0.206c-0.489,0.841-0.976,1.685-1.458,2.53
			c-0.057,0.099-0.104,0.108-0.203,0.051c-0.478-0.281-0.958-0.557-1.439-0.832C1.84,16.46,1.665,16.505,1.54,16.715
			c-0.106,0.178-0.21,0.357-0.314,0.536c0-4.952,0-9.903-0.003-14.854c0-0.108,0.024-0.133,0.133-0.133
			c6.716,0.003,13.432,0.002,20.147,0.002c-0.059,0.022-0.115,0.051-0.175,0.067c-0.675,0.18-1.351,0.357-2.026,0.536
			c-0.545,0.144-1.09,0.288-1.634,0.434c-0.164,0.044-0.216,0.123-0.178,0.273c0.101,0.387,0.203,0.773,0.308,1.159
			c0.031,0.113,0.11,0.168,0.229,0.149c0.057-0.009,0.112-0.025,0.168-0.04c0.287-0.075,0.574-0.151,0.861-0.227
			c0.02,0.066-0.021,0.096-0.043,0.13c-0.877,1.383-1.757,2.766-2.632,4.151c-0.061,0.096-0.11,0.115-0.219,0.073
			c-0.596-0.226-1.216-0.331-1.852-0.342c-0.167-0.003-0.179,0.014-0.125,0.174c0.163,0.493,0.251,1,0.275,1.517
			c0.014,0.282,0.009,0.274,0.288,0.324c1.392,0.244,2.372,1.015,2.825,2.353c0.45,1.327,0.154,2.535-0.81,3.554
			c-0.684,0.724-1.553,1.07-2.542,1.059c-0.99-0.011-1.839-0.39-2.517-1.12c-0.748-0.807-1.04-1.766-0.906-2.85
			c0.101-0.815,0.471-1.5,1.063-2.067c0.057-0.054,0.108-0.107,0.129-0.187c0.179-0.7,0.127-1.384-0.131-2.056
			c-0.037-0.097-0.077-0.109-0.169-0.06c-0.664,0.355-1.239,0.818-1.702,1.411c-0.93,1.189-1.337,2.536-1.167,4.042
			c0.153,1.357,0.727,2.517,1.742,3.428c1.303,1.171,2.839,1.633,4.574,1.363c1.339-0.207,2.458-0.836,3.323-1.878
			c0.973-1.17,1.399-2.523,1.257-4.043c-0.122-1.313-0.663-2.434-1.586-3.37c-0.091-0.092-0.112-0.149-0.039-0.263
			c0.923-1.446,1.841-2.896,2.762-4.343c0.018-0.028,0.023-0.077,0.082-0.069c0.101,0.381,0.2,0.764,0.302,1.145
			c0.052,0.192,0.125,0.233,0.318,0.183c0.358-0.094,0.717-0.192,1.075-0.285C22.717,6.569,22.789,6.539,22.833,6.461z"/>
		<path fill-rule="evenodd" clip-rule="evenodd" d="M22.833,6.461c-0.044,0.078-0.116,0.108-0.199,0.13
			c-0.358,0.093-0.717,0.191-1.075,0.285c-0.193,0.05-0.267,0.009-0.318-0.183c-0.102-0.381-0.201-0.764-0.302-1.145
			c-0.059-0.007-0.064,0.041-0.082,0.069c-0.921,1.448-1.839,2.897-2.762,4.343c-0.073,0.114-0.052,0.17,0.039,0.263
			c0.923,0.936,1.464,2.057,1.586,3.37c0.143,1.52-0.284,2.873-1.257,4.043c-0.865,1.042-1.984,1.671-3.323,1.878
			c-1.735,0.27-3.271-0.192-4.574-1.363c-1.016-0.911-1.589-2.07-1.742-3.428c-0.17-1.506,0.237-2.853,1.167-4.042
			c0.463-0.593,1.038-1.056,1.702-1.411c0.092-0.049,0.132-0.037,0.169,0.06c0.258,0.672,0.31,1.356,0.131,2.056
			c-0.021,0.08-0.072,0.133-0.129,0.187c-0.592,0.566-0.962,1.252-1.063,2.067c-0.134,1.084,0.158,2.043,0.906,2.85
			c0.678,0.73,1.526,1.109,2.517,1.12c0.989,0.012,1.858-0.335,2.542-1.059c0.964-1.019,1.26-2.227,0.81-3.554
			c-0.453-1.338-1.434-2.109-2.825-2.353c-0.279-0.049-0.274-0.042-0.288-0.324c-0.024-0.517-0.112-1.024-0.275-1.517
			c-0.054-0.161-0.042-0.178,0.125-0.174c0.636,0.011,1.256,0.117,1.852,0.342c0.108,0.042,0.158,0.022,0.219-0.073
			c0.875-1.385,1.755-2.768,2.632-4.151c0.021-0.034,0.063-0.063,0.043-0.13c-0.287,0.076-0.574,0.152-0.861,0.227
			c-0.056,0.015-0.111,0.031-0.168,0.04c-0.119,0.019-0.198-0.036-0.229-0.149c-0.104-0.386-0.207-0.772-0.308-1.159
			c-0.038-0.15,0.014-0.229,0.178-0.273c0.544-0.146,1.089-0.29,1.634-0.434c0.676-0.179,1.352-0.356,2.026-0.536
			c0.06-0.016,0.116-0.044,0.175-0.067c0.058,0,0.115,0,0.173,0c0.094,0.053,0.12,0.146,0.146,0.24
			c0.246,0.932,0.489,1.864,0.741,2.794c0.087,0.32,0.15,0.647,0.271,0.958C22.833,6.326,22.833,6.394,22.833,6.461z"/>
		<path fill-rule="evenodd" clip-rule="evenodd" d="M1.226,17.251c0.104-0.179,0.208-0.358,0.314-0.536
			c0.125-0.21,0.3-0.255,0.513-0.132c0.481,0.275,0.962,0.551,1.439,0.832c0.099,0.058,0.146,0.048,0.203-0.051
			c0.482-0.846,0.969-1.689,1.458-2.53c0.053-0.091,0.038-0.14-0.035-0.206c-0.955-0.869-1.546-1.942-1.741-3.216
			c-0.25-1.633,0.158-3.101,1.211-4.373C5.47,5.973,6.613,5.342,7.979,5.143c1.618-0.236,3.072,0.173,4.331,1.216
			c1.146,0.95,1.793,2.188,1.932,3.663c0.167,1.774-0.422,3.289-1.7,4.531c-0.344,0.335-0.736,0.604-1.157,0.835
			c-0.106,0.059-0.156,0.044-0.2-0.074c-0.246-0.656-0.289-1.322-0.127-2.003c0.019-0.078,0.061-0.138,0.118-0.193
			c0.576-0.556,0.95-1.221,1.071-2.018c0.155-1.029-0.097-1.956-0.754-2.757c-0.69-0.843-1.602-1.271-2.688-1.285
			C7.994,7.046,7.257,7.304,6.62,7.813c-0.724,0.579-1.156,1.333-1.299,2.249c-0.239,1.535,0.657,3.116,2.096,3.712
			c0.328,0.136,0.665,0.228,1.018,0.261c0.106,0.01,0.146,0.049,0.151,0.161c0.023,0.574,0.099,1.142,0.292,1.688
			c0.049,0.136-0.002,0.157-0.121,0.155c-0.563-0.011-1.113-0.09-1.647-0.269c-0.096-0.032-0.152-0.027-0.209,0.071
			c-0.482,0.846-0.97,1.688-1.46,2.529c-0.059,0.1-0.044,0.145,0.053,0.199c0.466,0.263,0.928,0.533,1.393,0.799
			c0.28,0.16,0.324,0.307,0.165,0.59c-0.068,0.122-0.138,0.243-0.209,0.363c-0.147,0.25-0.297,0.29-0.552,0.145
			c-0.464-0.267-0.93-0.53-1.389-0.805c-0.122-0.072-0.178-0.054-0.246,0.066c-0.342,0.604-0.691,1.203-1.037,1.805
			c-0.059,0.102-0.123,0.195-0.224,0.26c-0.077,0-0.154,0-0.231,0c-0.383-0.223-0.766-0.446-1.149-0.667
			c-0.278-0.161-0.32-0.313-0.158-0.592c0.352-0.608,0.7-1.219,1.057-1.825c0.063-0.108,0.054-0.159-0.059-0.222
			c-0.466-0.262-0.927-0.533-1.391-0.799c-0.094-0.054-0.176-0.116-0.237-0.205C1.226,17.405,1.226,17.328,1.226,17.251z"/>
		<path fill-rule="evenodd" clip-rule="evenodd" fill="none" d="M1.226,17.482c0.062,0.089,0.144,0.151,0.237,0.205
			c0.464,0.266,0.925,0.537,1.391,0.799c0.112,0.063,0.122,0.113,0.059,0.222c-0.356,0.606-0.705,1.217-1.057,1.825
			c-0.162,0.279-0.12,0.431,0.158,0.592c0.384,0.221,0.767,0.444,1.149,0.667c-0.605,0-1.212-0.004-1.818,0.004
			c-0.111,0.001-0.122-0.032-0.122-0.129C1.227,20.271,1.226,18.877,1.226,17.482z"/>
		<path fill-rule="evenodd" clip-rule="evenodd" fill="none" d="M22.833,6.259c-0.12-0.311-0.184-0.638-0.271-0.958
			c-0.252-0.93-0.495-1.862-0.741-2.794c-0.025-0.094-0.052-0.187-0.146-0.24c0.353,0,0.704,0.004,1.057-0.002
			c0.086-0.001,0.104,0.018,0.104,0.104C22.832,3.665,22.833,4.962,22.833,6.259z"/>
	</g>
</g>
</svg>
