<?xml version="1.0" encoding="utf-8"?>
<!-- Generator: Adobe Illustrator 16.0.0, SVG Export Plug-In . SVG Version: 6.00 Build 0)  -->
<!DOCTYPE svg PUBLIC "-//W3C//DTD SVG 1.1//EN" "http://www.w3.org/Graphics/SVG/1.1/DTD/svg11.dtd">
<svg version="1.1" id="Layer_1" xmlns="http://www.w3.org/2000/svg" xmlns:xlink="http://www.w3.org/1999/xlink" x="0px" y="0px"
	 width="24px" height="24px" viewBox="0 0 24 24" enable-background="new 0 0 24 24" xml:space="preserve">
<g>
	<g>
		<path fill-rule="evenodd" clip-rule="evenodd" fill="none" d="M12.046,18.736c-3.646,0-7.293-0.001-10.939,0.004
			c-0.148,0-0.194-0.019-0.193-0.211C0.92,14.208,0.92,9.886,0.915,5.565c0-0.175,0.043-0.199,0.18-0.199
			c7.3,0.004,14.601,0.004,21.902-0.002c0.172,0,0.18,0.062,0.18,0.226c-0.004,4.313-0.005,8.625,0.001,12.938
			c0,0.189-0.041,0.214-0.192,0.213C19.339,18.734,15.693,18.736,12.046,18.736z M14.472,5.429c-0.291,0-0.584-0.029-0.873,0.005
			c-1.094,0.131-2.186,0.261-3.264,0.538C9.617,6.155,8.912,6.38,8.22,6.656C7.119,7.095,6.067,7.667,5.083,8.395
			c-0.217,0.161-0.222,0.31,0.001,0.469c0.392,0.278,0.708,0.642,0.946,1.098c0.105,0.201,0.135,0.41,0.089,0.636
			c-0.012,0.057-0.012,0.137-0.083,0.137c-0.066,0-0.079-0.073-0.095-0.132c-0.014-0.05-0.023-0.103-0.037-0.153
			c-0.116-0.443-0.248-0.878-0.601-1.153C5.052,9.1,4.81,8.895,4.521,8.754C4.048,8.522,3.617,8.196,3.305,7.701
			C3.257,7.625,3.206,7.524,3.106,7.555C3.019,7.581,3.014,7.689,2.993,7.771c-0.07,0.275-0.069,0.55-0.033,0.836
			C3.028,9.15,3.295,9.605,3.43,10.12c0.053,0.201,0.208,0.414,0.396,0.496c0.342,0.15,0.669,0.327,0.983,0.541
			c0.066,0.045,0.157,0.072,0.136,0.183c-0.025,0.137-0.136,0.143-0.224,0.123c-0.303-0.069-0.587-0.201-0.818-0.441
			c-0.187-0.194-0.36-0.407-0.529-0.622c-0.094-0.119-0.166-0.102-0.243,0.008c-0.229,0.332-0.376,0.714-0.425,1.128
			c-0.048,0.411-0.068,0.832-0.197,1.218c-0.221,0.661-0.566,1.202-1.195,1.413c-0.114,0.038-0.185,0.127-0.142,0.253
			c0.141,0.403,0.309,0.794,0.634,1.048c0.165,0.129,0.306,0.027,0.303-0.202c-0.001-0.117-0.034-0.225-0.093-0.321
			c-0.062-0.101-0.121-0.204-0.177-0.309c-0.034-0.063-0.054-0.142,0.001-0.194c0.053-0.052,0.097,0.016,0.137,0.053
			c0.182,0.166,0.344,0.352,0.396,0.626c0.025,0.133,0.091,0.189,0.199,0.14c0.353-0.161,0.731-0.258,1.033-0.548
			c0.058-0.056,0.126-0.1,0.196-0.135c0.047-0.023,0.112-0.037,0.15,0.018c0.052,0.073-0.003,0.138-0.044,0.183
			c-0.088,0.098-0.182,0.189-0.28,0.273c-0.209,0.18-0.437,0.321-0.688,0.413c-0.08,0.028-0.17,0.083-0.165,0.194
			c0.007,0.133,0.115,0.113,0.196,0.125c0.114,0.018,0.227,0.034,0.341,0.053c0.572,0.093,1.115-0.163,1.68-0.191
			c0.6-0.029,1.154-0.316,1.697-0.603c0.276-0.146,0.552-0.231,0.862-0.22c0.443,0.016,0.885-0.033,1.325-0.102
			c0.237-0.037,0.273-0.118,0.186-0.381c-0.02-0.059-0.052-0.12,0-0.169c0.061-0.058,0.12-0.015,0.161,0.04
			c0.089,0.12,0.172,0.245,0.236,0.388c0.226,0.498,0.362,1.031,0.44,1.579c0.086,0.605,0.186,1.227-0.121,1.802
			c-0.068,0.128-0.147,0.247-0.221,0.37c-0.038,0.062-0.112,0.114-0.063,0.204c0.037,0.069,0.104,0.055,0.167,0.052
			c0.138-0.008,0.277-0.022,0.413-0.004c0.27,0.037,0.444-0.071,0.517-0.382c0.037-0.156,0.121-0.19,0.244-0.107
			c0.192,0.13,0.286,0.08,0.303-0.182c0.014-0.219,0.02-0.444-0.008-0.661c-0.07-0.545-0.021-1.066,0.138-1.586
			c0.117-0.381,0.216-0.77,0.3-1.165c0.089-0.419,0.048-0.845,0.119-1.26c0.011-0.063-0.01-0.161,0.083-0.155
			c0.064,0.004,0.073,0.079,0.087,0.139c0.077,0.332,0.046,0.668,0.025,1.001c-0.018,0.287,0.026,0.366,0.281,0.371
			c0.451,0.01,0.9,0.085,1.353,0.056c0.086-0.006,0.18-0.003,0.244,0.058c0.205,0.195,0.395,0.241,0.589-0.015
			c0.021-0.028,0.07-0.037,0.106-0.041c0.357-0.038,0.717-0.118,1.072-0.097c0.317,0.02,0.576-0.021,0.877-0.189
			c0.448-0.251,0.948-0.39,1.416-0.609c0.226-0.105,0.254-0.188,0.123-0.427c-0.197-0.36-0.379-0.728-0.365-1.175
			c0.002-0.065-0.023-0.167,0.057-0.176c0.075-0.009,0.078,0.092,0.096,0.156c0.165,0.583,0.412,1.121,0.715,1.617
			c0.295,0.485,0.671,0.893,1.066,1.272c0.235,0.227,0.42,0.499,0.473,0.854c0.132,0.89,0.086,1.744-0.428,2.489
			c-0.104,0.15-0.046,0.257,0.097,0.285c0.126,0.026,0.26,0.005,0.389,0.017c0.376,0.035,0.688-0.046,0.799-0.537
			c0.025-0.109,0.087-0.146,0.195-0.109c0.221,0.073,0.325-0.014,0.348-0.281c0.023-0.275-0.018-0.544-0.061-0.815
			c-0.089-0.576-0.038-1.154,0.13-1.696c0.11-0.355,0.138-0.64-0.051-0.968c-0.203-0.353-0.225-0.745-0.029-1.128
			c0.078-0.152,0.15-0.308,0.232-0.456c0.554-0.992,0.814-2.039,0.504-3.216c-0.139-0.529-0.119-0.536,0.313-0.766
			c0.007-0.003,0.014-0.009,0.021-0.012c0.155-0.07,0.255-0.032,0.268,0.181c0.007,0.132-0.003,0.265,0.033,0.394
			c0.041,0.143,0.096,0.162,0.197,0.063c0.208-0.203,0.264-0.468,0.098-0.729c-0.134-0.21-0.164-0.41-0.086-0.641
			c0.159-0.474-0.287-0.986-0.598-1.055c-0.245-0.054-0.543,0.084-0.685,0.325c-0.151,0.257-0.14,0.454,0.028,0.761
			c0.048,0.088,0.189,0.193,0.093,0.285C21.669,8.4,21.6,8.21,21.518,8.132c-0.017-0.017-0.029-0.041-0.044-0.061
			c-0.324-0.445-0.718-0.795-1.147-1.089c-0.897-0.614-1.87-0.988-2.894-1.216C16.453,5.546,15.468,5.428,14.472,5.429z
			 M18.146,13.869c-0.208,0.139-0.433,0.245-0.661,0.345c-0.161,0.071-0.185,0.19-0.103,0.354c0.081,0.16,0.176,0.313,0.235,0.484
			c0.111,0.319,0.307,0.613,0.213,1c-0.093,0.386-0.209,0.754-0.392,1.095c-0.209,0.393-0.443,0.762-0.722,1.092
			c-0.064,0.076-0.136,0.165-0.091,0.279c0.039,0.098,0.137,0.106,0.22,0.11c0.138,0.007,0.276-0.009,0.413,0.007
			c0.309,0.034,0.54-0.069,0.659-0.427c0.054-0.163,0.158-0.179,0.274-0.074c0.12,0.106,0.214,0.068,0.288-0.066
			c0.049-0.089,0.113-0.179,0.13-0.277c0.13-0.767,0.461-1.433,0.775-2.108c0.132-0.283,0.126-0.422-0.078-0.62
			c-0.311-0.303-0.595-0.636-0.861-0.989C18.366,13.966,18.261,13.924,18.146,13.869z M7.986,18.536
			c0.328,0.069,0.551-0.034,0.641-0.44c0.041-0.183,0.167-0.195,0.271-0.035c0.098,0.148,0.162,0.09,0.214-0.041
			c0.067-0.17,0.104-0.347,0.099-0.537c-0.011-0.496,0.011-0.987,0.179-1.453c0.109-0.303,0.1-0.598-0.027-0.892
			c-0.048-0.111-0.105-0.194-0.225-0.181c-0.303,0.035-0.606,0.07-0.91,0.106c-0.126,0.015-0.17,0.121-0.171,0.24
			c-0.001,0.112,0.029,0.225,0.045,0.338c0.035,0.242,0.115,0.478,0.103,0.727c-0.029,0.602-0.193,1.152-0.469,1.664
			c-0.072,0.134-0.241,0.27-0.155,0.436C7.664,18.627,7.852,18.512,7.986,18.536z M1.095,8.726c-0.136-0.007-0.181,0.139-0.105,0.34
			c0.286,0.762,0.786,1.289,1.399,1.69c0.118,0.077,0.214,0.071,0.286-0.085c0.089-0.195,0.196-0.376,0.33-0.538
			c0.063-0.077,0.099-0.17,0.05-0.289C2.973,9.645,2.899,9.441,2.833,9.235c-0.05-0.154-0.137-0.215-0.276-0.228
			C2.329,8.986,2.102,8.951,1.876,8.911C1.612,8.863,1.345,8.833,1.095,8.726z"/>
		<path fill-rule="evenodd" clip-rule="evenodd" d="M14.472,5.429c0.997-0.001,1.981,0.117,2.961,0.336
			c1.023,0.229,1.996,0.602,2.894,1.216c0.43,0.294,0.823,0.645,1.147,1.089c0.015,0.021,0.027,0.044,0.044,0.061
			C21.6,8.21,21.669,8.4,21.789,8.288c0.097-0.091-0.045-0.196-0.093-0.285c-0.168-0.307-0.179-0.503-0.028-0.761
			c0.141-0.241,0.439-0.379,0.685-0.325c0.312,0.069,0.757,0.581,0.598,1.055c-0.078,0.231-0.048,0.431,0.086,0.641
			c0.166,0.26,0.11,0.526-0.098,0.729c-0.101,0.099-0.157,0.08-0.197-0.063c-0.037-0.129-0.026-0.262-0.033-0.394
			c-0.012-0.213-0.112-0.251-0.268-0.181c-0.007,0.003-0.013,0.008-0.021,0.012c-0.432,0.229-0.453,0.237-0.313,0.766
			c0.31,1.177,0.049,2.224-0.504,3.216C21.52,12.844,21.448,13,21.37,13.152c-0.196,0.383-0.174,0.775,0.029,1.128
			c0.189,0.328,0.161,0.612,0.051,0.968c-0.168,0.542-0.219,1.12-0.13,1.696c0.042,0.271,0.084,0.54,0.061,0.815
			c-0.023,0.268-0.126,0.354-0.348,0.281c-0.107-0.036-0.17,0-0.195,0.109c-0.111,0.491-0.422,0.572-0.799,0.537
			c-0.129-0.012-0.263,0.01-0.389-0.017c-0.144-0.028-0.201-0.135-0.097-0.285c0.515-0.745,0.56-1.6,0.428-2.489
			c-0.053-0.354-0.238-0.627-0.473-0.854c-0.395-0.38-0.771-0.787-1.066-1.272c-0.303-0.496-0.55-1.034-0.715-1.617
			c-0.018-0.064-0.021-0.166-0.096-0.156c-0.081,0.01-0.055,0.111-0.057,0.176c-0.014,0.447,0.168,0.815,0.365,1.175
			c0.131,0.238,0.103,0.321-0.123,0.427c-0.468,0.22-0.968,0.358-1.416,0.609c-0.301,0.169-0.56,0.209-0.877,0.189
			c-0.355-0.021-0.715,0.059-1.072,0.097c-0.037,0.004-0.085,0.013-0.106,0.041c-0.194,0.256-0.384,0.21-0.589,0.015
			c-0.064-0.061-0.158-0.063-0.244-0.058c-0.452,0.029-0.901-0.046-1.353-0.056c-0.255-0.005-0.299-0.084-0.281-0.371
			c0.021-0.333,0.052-0.669-0.025-1.001c-0.014-0.06-0.022-0.135-0.087-0.139c-0.094-0.006-0.073,0.093-0.083,0.155
			c-0.07,0.415-0.03,0.841-0.119,1.26c-0.084,0.396-0.183,0.784-0.3,1.165c-0.159,0.52-0.208,1.041-0.138,1.586
			c0.028,0.217,0.021,0.442,0.008,0.661c-0.017,0.262-0.11,0.312-0.303,0.182c-0.124-0.083-0.208-0.049-0.244,0.107
			c-0.073,0.311-0.248,0.419-0.517,0.382c-0.136-0.019-0.275-0.004-0.413,0.004c-0.063,0.003-0.129,0.018-0.167-0.052
			c-0.049-0.09,0.025-0.143,0.063-0.204c0.074-0.123,0.153-0.242,0.221-0.37c0.306-0.575,0.207-1.196,0.121-1.802
			c-0.078-0.548-0.215-1.081-0.44-1.579c-0.064-0.143-0.147-0.268-0.236-0.388c-0.041-0.055-0.1-0.098-0.161-0.04
			c-0.052,0.049-0.02,0.11,0,0.169c0.088,0.263,0.051,0.344-0.186,0.381c-0.44,0.068-0.882,0.117-1.325,0.102
			c-0.31-0.012-0.586,0.074-0.862,0.22c-0.543,0.286-1.097,0.573-1.697,0.603c-0.565,0.028-1.108,0.284-1.68,0.191
			c-0.114-0.019-0.227-0.035-0.341-0.053c-0.081-0.012-0.189,0.008-0.196-0.125c-0.005-0.111,0.085-0.166,0.165-0.194
			c0.251-0.092,0.479-0.233,0.688-0.413c0.098-0.084,0.192-0.176,0.28-0.273c0.041-0.045,0.096-0.109,0.044-0.183
			c-0.038-0.055-0.103-0.041-0.15-0.018c-0.069,0.035-0.138,0.079-0.196,0.135c-0.302,0.29-0.68,0.387-1.033,0.548
			c-0.107,0.05-0.173-0.007-0.199-0.14c-0.052-0.274-0.213-0.46-0.396-0.626c-0.04-0.037-0.084-0.104-0.137-0.053
			c-0.055,0.053-0.035,0.131-0.001,0.194c0.056,0.104,0.116,0.208,0.177,0.309c0.06,0.097,0.092,0.204,0.093,0.321
			c0.003,0.229-0.138,0.331-0.303,0.202c-0.325-0.254-0.493-0.645-0.634-1.048c-0.043-0.126,0.028-0.215,0.142-0.253
			c0.629-0.211,0.975-0.752,1.195-1.413c0.129-0.387,0.149-0.807,0.197-1.218c0.049-0.414,0.196-0.796,0.425-1.128
			c0.077-0.11,0.149-0.127,0.243-0.008c0.169,0.215,0.342,0.428,0.529,0.622c0.231,0.24,0.516,0.372,0.818,0.441
			c0.087,0.02,0.198,0.014,0.224-0.123c0.021-0.111-0.07-0.138-0.136-0.183c-0.314-0.213-0.641-0.39-0.983-0.541
			C3.638,10.533,3.482,10.32,3.43,10.12C3.295,9.605,3.028,9.15,2.96,8.607C2.924,8.321,2.922,8.046,2.993,7.771
			c0.021-0.082,0.026-0.19,0.113-0.216c0.1-0.03,0.151,0.071,0.199,0.146c0.313,0.495,0.744,0.821,1.217,1.053
			C4.81,8.895,5.052,9.1,5.304,9.296c0.353,0.275,0.484,0.71,0.601,1.153c0.013,0.05,0.022,0.103,0.037,0.153
			c0.017,0.059,0.029,0.132,0.095,0.132c0.071,0,0.072-0.08,0.083-0.137c0.046-0.226,0.016-0.435-0.089-0.636
			C5.792,9.506,5.477,9.142,5.085,8.864C4.861,8.705,4.866,8.556,5.083,8.395c0.984-0.729,2.035-1.3,3.137-1.739
			c0.691-0.276,1.397-0.5,2.115-0.684c1.079-0.276,2.17-0.407,3.264-0.538C13.887,5.4,14.181,5.429,14.472,5.429z M22.576,7.762
			c-0.011-0.198-0.084-0.341-0.269-0.358c-0.11-0.01-0.196,0.047-0.209,0.187c-0.009,0.094,0.25,0.401,0.335,0.398
			C22.562,7.986,22.561,7.866,22.576,7.762z"/>
		<path fill-rule="evenodd" clip-rule="evenodd" d="M18.146,13.869c0.114,0.055,0.219,0.097,0.3,0.204
			c0.266,0.354,0.55,0.687,0.861,0.989c0.204,0.198,0.209,0.337,0.078,0.62c-0.314,0.676-0.645,1.342-0.775,2.108
			c-0.017,0.099-0.081,0.188-0.13,0.277c-0.074,0.135-0.168,0.173-0.288,0.066c-0.116-0.104-0.22-0.089-0.274,0.074
			c-0.119,0.357-0.35,0.461-0.659,0.427c-0.137-0.016-0.275,0-0.413-0.007c-0.083-0.004-0.181-0.013-0.22-0.11
			c-0.044-0.114,0.027-0.203,0.091-0.279c0.279-0.33,0.513-0.699,0.722-1.092c0.183-0.341,0.299-0.709,0.392-1.095
			c0.093-0.387-0.103-0.681-0.213-1c-0.059-0.171-0.154-0.324-0.235-0.484c-0.083-0.164-0.059-0.283,0.103-0.354
			C17.713,14.114,17.939,14.008,18.146,13.869z"/>
		<path fill-rule="evenodd" clip-rule="evenodd" d="M7.986,18.536c-0.134-0.024-0.322,0.091-0.404-0.068
			c-0.086-0.166,0.083-0.302,0.155-0.436c0.276-0.512,0.44-1.063,0.469-1.664c0.012-0.249-0.068-0.484-0.103-0.727
			c-0.016-0.113-0.047-0.226-0.045-0.338c0.001-0.119,0.045-0.226,0.171-0.24c0.303-0.036,0.606-0.071,0.91-0.106
			c0.12-0.014,0.177,0.069,0.225,0.181c0.127,0.294,0.136,0.589,0.027,0.892c-0.168,0.466-0.19,0.957-0.179,1.453
			c0.004,0.19-0.032,0.367-0.099,0.537c-0.052,0.131-0.117,0.189-0.214,0.041c-0.105-0.16-0.231-0.147-0.271,0.035
			C8.537,18.502,8.314,18.605,7.986,18.536z"/>
		<path fill-rule="evenodd" clip-rule="evenodd" d="M1.095,8.726c0.25,0.107,0.518,0.137,0.781,0.185
			c0.226,0.041,0.453,0.075,0.681,0.097c0.139,0.013,0.226,0.074,0.276,0.228c0.066,0.206,0.141,0.41,0.222,0.609
			c0.049,0.119,0.013,0.212-0.05,0.289c-0.134,0.162-0.241,0.343-0.33,0.538c-0.071,0.156-0.168,0.162-0.286,0.085
			c-0.613-0.401-1.113-0.929-1.399-1.69C0.914,8.864,0.958,8.719,1.095,8.726z"/>
		<path fill-rule="evenodd" clip-rule="evenodd" fill="none" d="M22.576,7.762c-0.016,0.104-0.015,0.224-0.143,0.228
			c-0.086,0.002-0.344-0.305-0.335-0.398c0.013-0.14,0.099-0.197,0.209-0.187C22.492,7.421,22.565,7.564,22.576,7.762z"/>
	</g>
</g>
</svg>
